<?xml version="1.0" standalone="no"?>
<!DOCTYPE svg PUBLIC "-//W3C//DTD SVG 1.1//EN" "http://www.w3.org/Graphics/SVG/1.1/DTD/svg11.dtd" >
<svg xmlns="http://www.w3.org/2000/svg" xmlns:xlink="http://www.w3.org/1999/xlink" version="1.1">
<metadata>
Created by FontForge 20170731 at Thu Jul  8 04:05:09 2021
 By Aleksey,,,
Copyright 1997 International Typeface Corporation. All rights reserved.
</metadata>
<defs>
<font id="AvenidaStd" horiz-adv-x="1538" >
  <font-face 
    font-family="Avenida Std"
    font-weight="400"
    font-stretch="normal"
    units-per-em="2048"
    panose-1="2 0 5 6 3 0 0 2 0 4"
    ascent="1638"
    descent="-410"
    x-height="1092"
    cap-height="1366"
    bbox="-137 -481 2116 1724"
    underline-thickness="8"
    underline-position="-30"
    unicode-range="U+0020-FB02"
  />
<missing-glyph horiz-adv-x="1024" 
d="M25 0v1362h972v-1362h-972zM180 1266l332 -498l330 498h-662zM123 1178v-992q0 -1 82.5 123t164.5 249l83 124zM901 1178l-332 -496l332 -498v994zM842 98l-330 496l-332 -496h662z" />
    <glyph glyph-name="f_i" unicode="fi" horiz-adv-x="935" 
d="M840 0h-138v1092h138v-1092zM240 0h-138v272h-67v129h67v691h410v-129h-272v-562h340v-129h-340v-272z" />
    <glyph glyph-name="f_l" unicode="fl" horiz-adv-x="1134" 
d="M1114 0h-409v1092h137v-963h272v-129zM240 0h-138v272h-67v129h67v691h410v-129h-272v-562h340v-129h-340v-272z" />
    <glyph glyph-name=".notdef" horiz-adv-x="1024" 
d="M25 0v1362h972v-1362h-972zM180 1266l332 -498l330 498h-662zM123 1178v-992q0 -1 82.5 123t164.5 249l83 124zM901 1178l-332 -496l332 -498v994zM842 98l-330 496l-332 -496h662z" />
    <glyph glyph-name=".null" horiz-adv-x="0" 
 />
    <glyph glyph-name="nonmarkingreturn" horiz-adv-x="682" 
 />
    <glyph glyph-name="space" unicode=" " horiz-adv-x="491" 
 />
    <glyph glyph-name="exclam" unicode="!" horiz-adv-x="342" 
d="M240 272h-138v1094h138v-1094zM170 154q35 0 60.5 -25.5t25.5 -60.5t-25.5 -59.5t-60.5 -24.5t-59.5 24.5t-24.5 59.5t24.5 60.5t59.5 25.5z" />
    <glyph glyph-name="quotedbl" unicode="&#x22;" horiz-adv-x="505" 
d="M225 1288q0 -16 -6 -28l-80 -263l-80 263q-4 16 -4 28q0 35 24.5 60.5t59.5 25.5t60.5 -25.5t25.5 -60.5zM451 1288q0 -14 -7 -28l-79 -263l-80 263q-4 16 -4 28q0 35 24.5 60.5t59.5 25.5t60.5 -25.5t25.5 -60.5z" />
    <glyph glyph-name="dollar" unicode="$" horiz-adv-x="638" 
d="M362 1378q89 -18 149 -89t60 -165v-14h-129v14q0 41 -22 73.5t-58 47.5v-485l175 -336q53 -97 53 -176q0 -103 -66.5 -175.5t-161.5 -86.5v-123h-81v123q-99 14 -166.5 91t-67.5 179h137q0 -45 27.5 -82t69.5 -49v508l-172 334q-50 98 -50 166q0 98 64.5 166.5
t157.5 80.5v105h81v-107zM362 498v-373q40 12 65.5 45.5t25.5 73.5q0 55 -39 133zM281 1249q-41 -11 -67 -43t-26 -73q0 -13 2.5 -27.5t6.5 -27t8 -21.5t8 -17.5t4 -9.5l64 -131v350z" />
    <glyph glyph-name="percent" unicode="%" horiz-adv-x="665" 
d="M129 0h-78l488 1366h75zM221 1374q71 0 121.5 -51t50.5 -121t-50.5 -120t-121.5 -50t-120.5 50t-49.5 120q0 71 50 121.5t120 50.5zM221 1307q-41 0 -71.5 -31t-30.5 -74q0 -41 30.5 -71.5t71.5 -30.5q43 0 74 30.5t31 71.5q0 43 -31 74t-74 31zM444 334q70 0 120 -50.5
t50 -121.5q0 -70 -50 -120t-120 -50t-120 50t-50 120q0 71 50 121.5t120 50.5zM444 266q-43 0 -72.5 -30.5t-29.5 -73.5q0 -42 30 -72.5t72 -30.5q41 0 72 31t31 72q0 42 -30.5 73t-72.5 31z" />
    <glyph glyph-name="ampersand" unicode="&#x26;" horiz-adv-x="667" 
d="M260 739q-66 50 -103.5 125t-37.5 160q0 149 105 253.5t253 104.5q35 0 70 -6v-141q-29 10 -70 10q-92 0 -156.5 -64.5t-64.5 -156.5t64.5 -156.5t156.5 -64.5h35v-137h-35q-112 0 -192 -80t-80 -193q0 -114 79.5 -193t192.5 -79v272h129v-393q-57 -16 -129 -16
q-169 0 -289 119.5t-120 289.5q0 106 51.5 198t140.5 148z" />
    <glyph glyph-name="quotesingle" unicode="'" horiz-adv-x="280" 
d="M225 1288q0 -16 -6 -28l-80 -263l-80 263q-4 16 -4 28q0 35 24.5 60.5t59.5 25.5t60.5 -25.5t25.5 -60.5z" />
    <glyph glyph-name="parenleft" unicode="(" horiz-adv-x="573" 
d="M539 0l-109 -70q-137 156 -214 354t-77 398q0 128 34 263.5t95 252.5q54 105 162 238l109 -70q-135 -163 -199 -328.5t-64 -355.5q0 -188 63.5 -351.5t199.5 -330.5z" />
    <glyph glyph-name="parenright" unicode=")" horiz-adv-x="573" 
d="M35 0q136 167 199 330.5t63 351.5q0 191 -64 356.5t-198 327.5l108 70q108 -133 162 -238q61 -117 95 -252.5t34 -263.5q0 -200 -77 -398t-214 -354z" />
    <glyph glyph-name="asterisk" unicode="*" horiz-adv-x="538" 
d="M164 1339l76 -75v108q5 0 15 1t15 1t15.5 -1t15.5 -1v-108l76 75q25 -18 43 -43l-76 -75h107q4 -20 4 -31t-4 -31h-107l76 -76q-17 -25 -43 -45l-76 78v-108q-12 -2 -31 -2q-22 0 -30 2v108l-76 -78q-22 15 -45 45l76 76h-107q-2 10 -2 31t2 31h107l-76 75q23 31 45 43z
" />
    <glyph glyph-name="plus" unicode="+" 
d="M1303 535h-465v-478h-138v478h-464v137h464v479h138v-479h465v-137z" />
    <glyph glyph-name="comma" unicode="," horiz-adv-x="307" 
d="M154 -154v138q-35 0 -60.5 24.5t-25.5 59.5t25.5 60.5t60.5 25.5q43 0 69 -31.5t25 -83.5q-3 -105 -94 -193z" />
    <glyph glyph-name="hyphen" unicode="-" horiz-adv-x="477" 
d="M408 481h-340v129h340v-129z" />
    <glyph glyph-name="period" unicode="." horiz-adv-x="307" 
d="M154 154q35 0 59.5 -25.5t24.5 -60.5t-24.5 -59.5t-59.5 -24.5t-60.5 24.5t-25.5 59.5t25.5 60.5t60.5 25.5z" />
    <glyph glyph-name="slash" unicode="/" horiz-adv-x="761" 
d="M14 -68l594 1502h142l-600 -1502h-136z" />
    <glyph glyph-name="zero" unicode="0" 
d="M1470 682q0 -142 -55.5 -271.5t-149 -223.5t-223.5 -149.5t-272 -55.5q-143 0 -272.5 55.5t-224 149t-150 223t-55.5 272.5q0 142 55.5 272t149.5 223.5t223.5 149t271.5 55.5q143 0 273 -55t224 -148.5t149.5 -223.5t55.5 -273zM1333 682q0 153 -75.5 282.5t-205.5 205
t-284 75.5q-152 0 -281.5 -75.5t-205.5 -205t-76 -282.5t76 -282.5t206 -205t283 -75.5t282.5 76t205 205.5t75.5 281.5z" />
    <glyph glyph-name="one" unicode="1" horiz-adv-x="327" 
d="M233 0h-137v1366h137v-1366z" />
    <glyph glyph-name="two" unicode="2" horiz-adv-x="614" 
d="M414 1024q16 56 16 86q2 55 -34.5 95t-94.5 40q-57 0 -97 -39t-40 -96h-137q0 113 80 192.5t194 79.5q117 0 192.5 -81.5t75.5 -188.5q0 -60 -28 -137l-318 -846h350v-129h-546z" />
    <glyph glyph-name="three" unicode="3" horiz-adv-x="655" 
d="M367 977q102 -75 161.5 -190.5t59.5 -247.5q0 -149 -73.5 -275t-199.5 -199t-274 -73v137q169 0 289.5 120t120.5 290q0 76 -24.5 142.5t-65 113t-87 79t-96.5 50.5l178 313h-315v129h477v-129z" />
    <glyph glyph-name="four" unicode="4" horiz-adv-x="722" 
d="M588 0h-137v272h-410v129l410 965h137v-965h67v-129h-67v-272zM451 401v639l-265 -639h265z" />
    <glyph glyph-name="five" unicode="5" horiz-adv-x="669" 
d="M219 1059q168 -53 274.5 -196t106.5 -324q0 -149 -73 -275t-198.5 -199t-273.5 -73v137q169 0 288.5 120t119.5 290q0 73 -28 145.5t-78.5 131.5t-129 95.5t-170.5 36.5l56 418h419v-129h-290z" />
    <glyph glyph-name="six" unicode="6" horiz-adv-x="948" 
d="M739 1268q-166 -83 -293 -227t-184 -314q86 58 178.5 71.5t170.5 -15t141.5 -82.5t100.5 -131.5t40 -161.5q6 -170 -110 -294t-285 -130q-187 -8 -303 108q-119 119 -125 314q-11 294 152 562.5t454 420.5zM494 117q113 3 189.5 85.5t72.5 196.5q-3 113 -86 190t-197 73
q-114 -3 -189 -83t-71 -200q5 -113 86.5 -189.5t194.5 -72.5z" />
    <glyph glyph-name="seven" unicode="7" horiz-adv-x="614" 
d="M246 0h-137l307 1237h-375v129h547z" />
    <glyph glyph-name="eight" unicode="8" horiz-adv-x="983" 
d="M717 762q90 -55 143 -149t53 -207q0 -175 -123 -298.5t-298 -123.5t-299.5 123.5t-124.5 298.5q0 111 53 205.5t145 150.5q-59 49 -93 119t-34 151q0 145 103.5 247.5t249.5 102.5q145 0 247.5 -102.5t102.5 -247.5q0 -161 -125 -270zM492 692q-117 0 -202 -80t-85 -206
q0 -117 84.5 -201t202.5 -84q117 0 200.5 84t83.5 201t-83.5 201.5t-200.5 84.5zM492 1245q-90 0 -153 -62t-63 -151q0 -101 67.5 -158t148.5 -57q50 0 97 22.5t81.5 73.5t34.5 119q0 89 -62 151t-151 62z" />
    <glyph glyph-name="nine" unicode="9" horiz-adv-x="952" 
d="M301 -16l-68 116q166 79 290.5 227t174.5 324q-89 -64 -183 -81t-171.5 9.5t-141.5 79.5t-102 128.5t-43 156.5q-14 171 98 301.5t281 136.5q195 7 320 -116q129 -129 129 -351q0 -288 -156 -534.5t-428 -396.5zM444 1239q-113 -8 -186.5 -93.5t-64.5 -197.5
q7 -114 91.5 -187t198.5 -67q116 6 186.5 91t61.5 200q-8 114 -90.5 187.5t-196.5 66.5z" />
    <glyph glyph-name="colon" unicode=":" horiz-adv-x="307" 
d="M154 154q35 0 60.5 -25.5t25.5 -60.5t-25.5 -59.5t-60.5 -24.5t-59.5 24.5t-24.5 59.5t24.5 60.5t59.5 25.5zM154 682q35 0 60.5 -24.5t25.5 -59.5t-25.5 -60.5t-60.5 -25.5t-59.5 25.5t-24.5 60.5t24.5 59.5t59.5 24.5z" />
    <glyph glyph-name="semicolon" unicode=";" horiz-adv-x="307" 
d="M154 682q35 0 60.5 -24.5t25.5 -59.5t-25.5 -60.5t-60.5 -25.5t-59.5 25.5t-24.5 60.5t24.5 59.5t59.5 24.5zM154 -154v138q-35 0 -59.5 24.5t-24.5 59.5t24.5 60.5t59.5 25.5q43 0 69 -31.5t25 -83.5q-3 -105 -94 -193z" />
    <glyph glyph-name="less" unicode="&#x3c;" 
d="M1300 66l-1062 493v94l1062 492v-150l-858 -385v-6l858 -389v-149z" />
    <glyph glyph-name="equal" unicode="=" 
d="M1303 760h-1070v137h1070v-137zM1303 311h-1070v138h1070v-138z" />
    <glyph glyph-name="greater" unicode="&#x3e;" 
d="M1300 557l-1062 -491v149l858 387v4l-858 389v150l1062 -494v-94z" />
    <glyph glyph-name="question" unicode="?" horiz-adv-x="665" 
d="M240 438v-166h-138v283q141 0 240.5 99.5t99.5 240.5t-99.5 241.5t-240.5 100.5v137q130 0 240 -64t174 -174.5t64 -240.5q0 -160 -95.5 -286t-244.5 -171zM170 154q35 0 60.5 -25.5t25.5 -60.5t-25.5 -59.5t-60.5 -24.5t-59.5 24.5t-24.5 59.5t24.5 60.5t59.5 25.5z" />
    <glyph glyph-name="A" unicode="A" horiz-adv-x="763" 
d="M655 0h-137v272h-272v-272h-137v272h-68v129h68v635q0 83 6.5 125.5t23.5 77.5q34 67 98 105t144 38q147 0 223 -108q30 -43 40.5 -90t10.5 -137v-646h68v-129h-68v-272zM518 401v703q0 69 -34.5 110t-94.5 41q-64 0 -103.5 -42t-39.5 -111v-701h272z" />
    <glyph glyph-name="B" unicode="B" horiz-adv-x="724" 
d="M240 1237v-289q60 0 102.5 42t42.5 102t-42.5 102.5t-102.5 42.5zM213 1366q135 0 217 -78.5t82 -195.5q0 -66 -33 -127q84 -78 131 -184.5t47 -225.5q0 -195 -117.5 -347t-299.5 -198q-70 -18 -138 -18v1374h111zM383 866q-73 -41 -143 -47v-669q123 43 201.5 153
t78.5 248q0 175 -137 315z" />
    <glyph glyph-name="C" unicode="C" horiz-adv-x="671" 
d="M631 1235q-12 -5 -41.5 -16t-52 -21t-41.5 -22q-133 -75 -212 -206.5t-79 -287.5t80 -288.5t211 -205.5q13 -5 39 -17.5t48.5 -21.5t47.5 -16v-141q-69 14 -135 43q-192 83 -310 258t-118 389q0 216 118.5 392t309.5 257q68 27 135 43v-139z" />
    <glyph glyph-name="D" unicode="D" horiz-adv-x="733" 
d="M240 1176v-988q130 73 209 205.5t79 288.5t-78.5 287.5t-209.5 206.5zM102 1374q66 -16 138 -43q190 -81 308 -256.5t118 -392.5q0 -214 -117 -389t-309 -258q-69 -29 -138 -43v1380v2z" />
    <glyph glyph-name="E" unicode="E" horiz-adv-x="614" 
d="M518 0h-409v963h-68v129h68v274h409v-129h-272v-145h342v-129h-342v-834h272v-129z" />
    <glyph glyph-name="F" unicode="F" horiz-adv-x="614" 
d="M246 0h-137v963h-68v129h68v274h409v-129h-272v-145h342v-129h-342v-963z" />
    <glyph glyph-name="G" unicode="G" horiz-adv-x="700" 
d="M500 410h131v-418q-69 14 -135 43q-192 83 -309 258t-117 389q0 217 118 392.5t308 256.5q68 27 135 43v-139q-12 -5 -41.5 -16t-52 -21t-41.5 -22q-132 -75 -210.5 -206.5t-78.5 -287.5t80 -289.5t213 -208.5v226z" />
    <glyph glyph-name="H" unicode="H" horiz-adv-x="757" 
d="M649 0h-137v963h-266v-963h-137v963h-68v129h68v274h137v-274h266v274h137v-274h68v-129h-68v-963z" />
    <glyph glyph-name="I" unicode="I" horiz-adv-x="342" 
d="M240 0h-138v1366h138v-1366z" />
    <glyph glyph-name="J" unicode="J" horiz-adv-x="526" 
d="M20 -8v137q125 0 199 86q74 83 74 274v877h137v-846q0 -160 -28.5 -250.5t-86.5 -152.5q-119 -125 -295 -125z" />
    <glyph glyph-name="K" unicode="K" horiz-adv-x="704" 
d="M102 0v1366h138v-291l237 291h172l-233 -279l270 -1087h-139l-236 969l-71 -86v-883h-138z" />
    <glyph glyph-name="L" unicode="L" horiz-adv-x="532" 
d="M512 0h-410v1366h138v-1237h272v-129z" />
    <glyph glyph-name="M" unicode="M" horiz-adv-x="937" 
d="M836 0h-138v1153l-229 -299l-229 299v-1153h-138v1366h138l229 -291l229 291h138v-1366z" />
    <glyph glyph-name="N" unicode="N" horiz-adv-x="751" 
d="M649 0h-137v887l-272 291v-1178h-138v1366h138l272 -291v291h137v-1366z" />
    <glyph glyph-name="O" unicode="O" horiz-adv-x="1536" 
d="M768 1382q143 0 272.5 -55.5t223 -149t149 -223t55.5 -272.5q0 -142 -55.5 -271t-149 -222.5t-223 -149t-272.5 -55.5t-272.5 55.5t-223 149t-149 222.5t-55.5 271q0 143 55.5 272.5t149 223t223 149t272.5 55.5zM768 1245q-153 0 -282.5 -75.5t-205 -205t-75.5 -282.5
t75.5 -282t205 -204t282.5 -75t282.5 75t205 204t75.5 282t-75.5 282.5t-205 205t-282.5 75.5z" />
    <glyph glyph-name="P" unicode="P" horiz-adv-x="724" 
d="M102 1374q53 0 138 -18q182 -48 299.5 -199t117.5 -346q0 -193 -117.5 -344t-299.5 -201v-266h-138v1374zM240 1212v-802q125 46 202.5 155.5t77.5 245.5q0 137 -78 246.5t-202 154.5z" />
    <glyph glyph-name="Q" unicode="Q" horiz-adv-x="1536" 
d="M1257 182l91 -108l-99 -82l-92 108q-171 -116 -389 -116q-143 0 -272.5 55.5t-223 149t-149 222.5t-55.5 271q0 143 55.5 272.5t149 223t223 149t272.5 55.5t272.5 -55.5t223 -149t149 -223t55.5 -272.5q0 -144 -55.5 -272.5t-155.5 -227.5zM1169 287q76 77 119 179
t43 216q0 153 -75.5 282.5t-205 205t-282.5 75.5t-282.5 -75.5t-205 -205t-75.5 -282.5t75.5 -282t205 -204t282.5 -75q163 0 301 86l-90 106l98 82z" />
    <glyph glyph-name="R" unicode="R" horiz-adv-x="724" 
d="M375 322l282 -322h-180l-237 287v-287h-138v1374q68 -3 138 -18q182 -48 299.5 -199t117.5 -346q0 -153 -76.5 -283t-205.5 -206zM240 1212v-802q126 46 203 155t77 246t-78 246.5t-202 154.5z" />
    <glyph glyph-name="S" unicode="S" horiz-adv-x="571" 
d="M223 682q-155 150 -155 307q0 160 112.5 272.5t272.5 112.5v-137q-103 0 -175.5 -72.5t-72.5 -175.5q0 -59 27 -107.5t92 -103.5q95 -80 141 -172q39 -72 39 -180q0 -180 -127.5 -307t-308.5 -127v137q124 0 211.5 87t87.5 210q0 28 -4.5 53t-15.5 48.5t-19 39t-27 36.5
t-25.5 28.5t-28.5 28t-24 22.5z" />
    <glyph glyph-name="T" unicode="T" horiz-adv-x="587" 
d="M362 0h-137v1237h-205v129h547v-129h-205v-1237z" />
    <glyph glyph-name="U" unicode="U" horiz-adv-x="737" 
d="M94 328v1038h137v-1090q0 -80 39 -122.5t105 -42.5q61 0 95 41.5t34 123.5v1090h137v-1049q0 -92 -10.5 -138.5t-40.5 -88.5q-74 -106 -221 -106q-81 0 -145.5 37.5t-98.5 103.5q-18 36 -24.5 78.5t-6.5 124.5z" />
    <glyph glyph-name="V" unicode="V" horiz-adv-x="641" 
d="M248 0l-234 1366h140l172 -1063l172 1063h131l-236 -1366h-145z" />
    <glyph glyph-name="W" unicode="W" horiz-adv-x="948" 
d="M350 0h-135l-201 1366h136l129 -1024l127 750h137l127 -750l129 1024h137l-201 -1366h-137l-123 733z" />
    <glyph glyph-name="X" unicode="X" horiz-adv-x="710" 
d="M696 0h-137l-205 666l-196 -666h-144l267 836l-164 530h141l96 -336l99 336h141l-166 -530z" />
    <glyph glyph-name="Y" unicode="Y" horiz-adv-x="659" 
d="M397 0h-137v922l-246 444h154l162 -307l162 307h153l-248 -444v-922z" />
    <glyph glyph-name="Z" unicode="Z" horiz-adv-x="620" 
d="M573 0h-546l366 1229h-332v137h512l-366 -1229h366v-137z" />
    <glyph glyph-name="bracketleft" unicode="[" horiz-adv-x="573" 
d="M170 1434h342v-129h-205v-1244h205v-129h-342v1502z" />
    <glyph glyph-name="backslash" unicode="\" horiz-adv-x="761" 
d="M750 -68h-138l-598 1502h140z" />
    <glyph glyph-name="bracketright" unicode="]" horiz-adv-x="573" 
d="M403 1434v-1502h-342v129h205v1244h-205v129h342z" />
    <glyph glyph-name="asciicircum" unicode="^" 
d="M1317 690h-172l-373 598h-6l-373 -598h-172l488 768h120z" />
    <glyph glyph-name="underscore" unicode="_" horiz-adv-x="1024" 
d="M0 -401v129h1024v-129h-1024z" />
    <glyph glyph-name="grave" unicode="`" horiz-adv-x="579" 
d="M137 1690h103l204 -205h-102z" />
    <glyph glyph-name="a" unicode="a" horiz-adv-x="751" 
d="M649 0h-137v272h-272v-272h-138v272h-67v129h67v363q0 84 6 126t25 77q32 66 97.5 104.5t144.5 38.5q144 0 223 -109q30 -43 40.5 -90t10.5 -137v-373h68v-129h-68v-272zM512 401v430q0 69 -35.5 110.5t-95.5 41.5q-63 0 -102 -42.5t-39 -111.5v-428h272z" />
    <glyph glyph-name="b" unicode="b" horiz-adv-x="702" 
d="M96 0v1092h92q148 0 233 -76t85 -197q0 -41 -17 -90q71 -58 111.5 -141t40.5 -178q0 -170 -120 -290t-288 -120h-137zM233 674q53 0 98.5 39.5t45.5 105.5q0 60 -42.5 102t-101.5 42v-289zM233 129q113 -2 193 78t80 194q0 60 -27.5 116.5t-72.5 94.5q-73 -61 -173 -73
v-410z" />
    <glyph glyph-name="c" unicode="c" horiz-adv-x="657" 
d="M616 -8q-113 0 -216 44t-177 118t-118 177t-44 216q0 112 44 214.5t118 176.5t177 118t216 44v-137q-173 0 -295 -122t-122 -294q0 -173 122 -295.5t295 -122.5v-137z" />
    <glyph glyph-name="d" unicode="d" horiz-adv-x="712" 
d="M233 942v-790q123 42 202 150.5t79 244.5q0 135 -78.5 243.5t-202.5 151.5zM96 -8v1108q71 0 137 -17q181 -45 299.5 -194t118.5 -342q0 -192 -117.5 -341.5t-300.5 -197.5q-77 -16 -137 -16z" />
    <glyph glyph-name="e" unicode="e" horiz-adv-x="608" 
d="M512 0h-410v272h-67v129h67v691h410v-129h-272v-562h340v-129h-340v-143h272v-129z" />
    <glyph glyph-name="f" unicode="f" horiz-adv-x="608" 
d="M240 0h-138v272h-67v129h67v691h410v-129h-272v-562h340v-129h-340v-272z" />
    <glyph glyph-name="g" unicode="g" horiz-adv-x="663" 
d="M485 150v260h131v-418q-75 0 -137 16q-181 45 -299.5 195t-118.5 344q0 112 44 214.5t118 176.5t177 118t216 44v-137q-173 0 -295 -122t-122 -294q0 -136 79 -245t207 -152z" />
    <glyph glyph-name="h" unicode="h" horiz-adv-x="743" 
d="M641 0h-137v272h-264v-272h-138v272h-67v129h67v691h138v-691h264v691h137v-691h70v-129h-70v-272z" />
    <glyph glyph-name="i" unicode="i" horiz-adv-x="327" 
d="M231 0h-137v1092h137v-1092z" />
    <glyph glyph-name="j" unicode="j" horiz-adv-x="518" 
d="M20 -8v137q137 0 213 104q60 83 60 265v594h137v-566q0 -150 -21 -231.5t-65 -140.5q-56 -77 -141 -119.5t-183 -42.5z" />
    <glyph glyph-name="k" unicode="k" horiz-adv-x="679" 
d="M94 0v1092h137v-289l240 289h170l-231 -275l252 -817h-148l-207 702l-76 -92v-610h-137z" />
    <glyph glyph-name="l" unicode="l" horiz-adv-x="526" 
d="M506 0h-410v1092h137v-963h273v-129z" />
    <glyph glyph-name="m" unicode="m" horiz-adv-x="925" 
d="M829 0h-137v887l-229 -307l-230 307v-887h-137v1092h137l230 -289l229 289h137v-1092z" />
    <glyph glyph-name="n" unicode="n" horiz-adv-x="737" 
d="M641 0h-137v614l-271 291v-905h-137v1092h137l271 -289v289h137v-1092z" />
    <glyph glyph-name="o" unicode="o" horiz-adv-x="1249" 
d="M625 1110q153 0 282.5 -75.5t205 -205t75.5 -282.5t-75.5 -282.5t-205 -205t-282.5 -75.5t-283 75.5t-205.5 205t-75.5 282.5t75.5 282.5t205.5 205t283 75.5zM625 973q-177 0 -301.5 -124.5t-124.5 -301.5t124.5 -301.5t301.5 -124.5t301.5 124.5t124.5 301.5
t-124.5 301.5t-301.5 124.5z" />
    <glyph glyph-name="p" unicode="p" horiz-adv-x="702" 
d="M199 1092q198 0 320 -118t122 -292q0 -170 -120 -290t-288 -120v-272h-137v1092h103zM233 965v-564q113 3 192 85t79 196t-78.5 196.5t-192.5 86.5z" />
    <glyph glyph-name="q" unicode="q" horiz-adv-x="1249" 
d="M1038 164l72 -88l-94 -84l-74 88q-146 -96 -317 -96q-153 0 -283 75.5t-205.5 205t-75.5 282.5t75.5 282.5t205.5 205t283 75.5t282.5 -75.5t205 -205t75.5 -282.5q0 -107 -39.5 -206.5t-110.5 -176.5zM950 272q101 115 101 275q0 177 -124.5 301.5t-301.5 124.5
t-301.5 -124.5t-124.5 -301.5t124.5 -301.5t301.5 -124.5q126 0 229 65l-92 113l102 80z" />
    <glyph glyph-name="r" unicode="r" horiz-adv-x="692" 
d="M233 281v-281h-137v1092h76q104 0 187 -26t134.5 -67.5t86 -97t48 -109.5t13.5 -110q0 -126 -70.5 -229.5t-185.5 -149.5l266 -303h-180zM233 965v-564q113 3 192 85t79 196t-78.5 196.5t-192.5 86.5z" />
    <glyph glyph-name="s" unicode="s" horiz-adv-x="505" 
d="M197 545q-129 108 -129 248q0 127 90.5 217t216.5 90v-137q-71 0 -120.5 -49t-49.5 -121q0 -77 78 -144q155 -124 155 -295q0 -151 -106.5 -256.5t-257.5 -105.5v137q94 0 160.5 65.5t66.5 159.5q0 103 -104 191z" />
    <glyph glyph-name="t" unicode="t" horiz-adv-x="579" 
d="M358 0h-137v963h-205v129h547v-129h-205v-963z" />
    <glyph glyph-name="u" unicode="u" horiz-adv-x="722" 
d="M88 328v764h137v-828q3 -69 41.5 -111t102.5 -42q59 0 92.5 40.5t36.5 110.5v830h137v-775q0 -90 -10.5 -137t-40.5 -90q-74 -106 -224 -106q-79 0 -143 37.5t-98 103.5q-18 36 -24.5 78.5t-6.5 124.5z" />
    <glyph glyph-name="v" unicode="v" horiz-adv-x="548" 
d="M207 0l-193 1092h136l129 -791l124 791h134l-193 -1092h-137z" />
    <glyph glyph-name="w" unicode="w" horiz-adv-x="868" 
d="M307 0h-137l-158 1092h138l96 -750l121 750h137l121 -750l94 750h135l-154 -1092h-137l-129 754z" />
    <glyph glyph-name="x" unicode="x" horiz-adv-x="573" 
d="M559 0h-135l-135 465l-131 -465h-146l189 631l-135 461h131l90 -318l88 318h133l-135 -461z" />
    <glyph glyph-name="y" unicode="y" horiz-adv-x="659" 
d="M397 0h-137v641l-246 451h154l164 -312l164 312h149l-248 -451v-641z" />
    <glyph glyph-name="z" unicode="z" horiz-adv-x="520" 
d="M485 0h-469l283 954h-256v138h442l-288 -955h288v-137z" />
    <glyph glyph-name="bar" unicode="|" horiz-adv-x="477" 
d="M307 -481h-137v2048h137v-2048z" />
    <glyph glyph-name="asciitilde" unicode="~" 
d="M1343 639q-70 -87 -148.5 -135.5t-188.5 -48.5q-121 0 -254 75q-129 76 -224 76q-127 0 -235 -149l-98 102q37 43 66 71t69.5 56.5t88.5 42.5t105 14q131 0 258 -73q137 -78 226 -78q125 0 239 147z" />
    <glyph glyph-name="uni00A0" unicode="&#xa0;" horiz-adv-x="491" 
 />
    <glyph glyph-name="exclamdown" unicode="&#xa1;" horiz-adv-x="342" 
d="M240 1092v-1092h-138v1092h138zM170 1212q-35 0 -59.5 24.5t-24.5 59.5t24.5 60.5t59.5 25.5t60.5 -25.5t25.5 -60.5t-25.5 -59.5t-60.5 -24.5z" />
    <glyph glyph-name="cent" unicode="&#xa2;" horiz-adv-x="544" 
d="M336 446v474q-63 -36 -100 -99.5t-37 -138.5t37 -138t100 -98zM471 272q-21 0 -68 7v-74h-67v92q-122 42 -198.5 147.5t-76.5 237.5t76 238t199 149v92h67v-74q50 5 68 5h25v-138h-25q-37 0 -68 -8v-528q27 -8 68 -8h25v-138h-25z" />
    <glyph glyph-name="sterling" unicode="&#xa3;" horiz-adv-x="751" 
d="M588 1376v-139q-31 8 -70 8q-119 0 -195.5 -83t-76.5 -240v-521h477v-129h-477v-143h409v-129h-546v272h-68v129h68v525q0 103 32.5 189.5t88 144.5t130 90t158.5 32q36 0 70 -6z" />
    <glyph glyph-name="currency" unicode="&#xa4;" horiz-adv-x="1280" 
d="M1085 356q-25 -27 -73 -75q-68 67 -138 135q-101 -82 -239 -82t-240 82q-47 -45 -137 -135q-61 62 -74 75q72 68 140 131q-82 110 -82 238q0 140 82 238q-12 12 -63 59.5t-77 73.5q13 14 74 75q90 -90 137 -135q110 82 240 82q60 0 125 -21t114 -61q22 23 68.5 68
t69.5 67q48 -48 73 -75q-20 -20 -43 -42t-51.5 -49t-44.5 -42q82 -104 82 -238q0 -125 -82 -238q45 -41 139 -131zM924 727q0 123 -87.5 205t-199.5 82q-124 0 -207.5 -84.5t-83.5 -202.5t85.5 -204.5t203.5 -86.5t203.5 86t85.5 205z" />
    <glyph glyph-name="yen" unicode="&#xa5;" horiz-adv-x="659" 
d="M397 793v-793h-137v793h-135v129h135l-246 444h154l162 -326l162 326h153l-248 -444h138v-129h-138z" />
    <glyph glyph-name="brokenbar" unicode="&#xa6;" horiz-adv-x="477" 
d="M307 696h-137v871h137v-871zM307 -481h-137v878h137v-878z" />
    <glyph glyph-name="dieresis" unicode="&#xa8;" horiz-adv-x="681" 
d="M205 1655q28 0 47.5 -20t19.5 -48t-19.5 -48.5t-47.5 -20.5t-48 20.5t-20 48.5t20 48t48 20zM477 1655q29 0 49.5 -20t20.5 -48t-20.5 -48.5t-49.5 -20.5q-28 0 -47.5 20.5t-19.5 48.5t19.5 48t47.5 20z" />
    <glyph glyph-name="guillemotleft" unicode="&#xab;" horiz-adv-x="563" 
d="M162 272l-119 275l119 272h129l-121 -272l121 -275h-129zM375 272l-119 275l119 272h129l-121 -272l121 -275h-129z" />
    <glyph glyph-name="logicalnot" unicode="&#xac;" 
d="M1303 307h-138v400h-932v137h1070v-537z" />
    <glyph glyph-name="uni00AD" unicode="&#xad;" horiz-adv-x="477" 
d="M408 481h-340v129h340v-129z" />
    <glyph glyph-name="plusminus" unicode="&#xb1;" 
d="M1303 0h-1067v137h1067v-137zM1303 692h-465v-416h-138v416h-464v137h464v416h138v-416h465v-137z" />
    <glyph glyph-name="acute" unicode="&#xb4;" horiz-adv-x="579" 
d="M444 1690l-204 -205h-103l205 205h102z" />
    <glyph glyph-name="periodcentered" unicode="&#xb7;" horiz-adv-x="307" 
d="M154 770q35 0 60.5 -25.5t25.5 -60.5t-25.5 -59.5t-60.5 -24.5t-59.5 24.5t-24.5 59.5t24.5 60.5t59.5 25.5z" />
    <glyph glyph-name="guillemotright" unicode="&#xbb;" horiz-adv-x="563" 
d="M401 272h-129l121 275l-121 272h129l119 -272zM188 272h-129l119 275l-119 272h129l119 -272z" />
    <glyph glyph-name="questiondown" unicode="&#xbf;" horiz-adv-x="665" 
d="M426 920v163h137v-280q-141 0 -240.5 -100.5t-99.5 -241.5t99.5 -240.5t240.5 -99.5v-137q-198 0 -337.5 139.5t-139.5 337.5q0 160 95.5 287t244.5 172zM496 1204q-35 0 -60.5 24.5t-25.5 59.5t25.5 60.5t60.5 25.5t59.5 -25.5t24.5 -60.5t-24.5 -59.5t-59.5 -24.5z" />
    <glyph glyph-name="Agrave" unicode="&#xc0;" horiz-adv-x="763" 
d="M655 0h-137v272h-272v-272h-137v272h-68v129h68v635q0 83 6.5 125.5t23.5 77.5q34 67 98 105t144 38q147 0 223 -108q30 -43 40.5 -90t10.5 -137v-646h68v-129h-68v-272zM518 401v703q0 69 -34.5 110t-94.5 41q-64 0 -103.5 -42t-39.5 -111v-701h272zM123 1690h102
l205 -205h-102z" />
    <glyph glyph-name="Aacute" unicode="&#xc1;" horiz-adv-x="763" 
d="M655 0h-137v272h-272v-272h-137v272h-68v129h68v635q0 83 6.5 125.5t23.5 77.5q34 67 98 105t144 38q147 0 223 -108q30 -43 40.5 -90t10.5 -137v-646h68v-129h-68v-272zM518 401v703q0 69 -34.5 110t-94.5 41q-64 0 -103.5 -42t-39.5 -111v-701h272zM637 1690l-205 -205
h-102l205 205h102z" />
    <glyph glyph-name="Acircumflex" unicode="&#xc2;" horiz-adv-x="763" 
d="M655 0h-137v272h-272v-272h-137v272h-68v129h68v635q0 83 6.5 125.5t23.5 77.5q34 67 98 105t144 38q147 0 223 -108q30 -43 40.5 -90t10.5 -137v-646h68v-129h-68v-272zM518 401v703q0 69 -34.5 110t-94.5 41q-64 0 -103.5 -42t-39.5 -111v-701h272zM485 1493l-102 102
l-102 -102h-103l205 205l205 -205h-103z" />
    <glyph glyph-name="Atilde" unicode="&#xc3;" horiz-adv-x="763" 
d="M655 0h-137v272h-272v-272h-137v272h-68v129h68v635q0 83 6.5 125.5t23.5 77.5q34 67 98 105t144 38q147 0 223 -108q30 -43 40.5 -90t10.5 -137v-646h68v-129h-68v-272zM518 401v703q0 69 -34.5 110t-94.5 41q-64 0 -103.5 -42t-39.5 -111v-701h272zM350 1550
q-1 1 -7.5 7t-9 8t-9 7t-10.5 7l-10 5t-11.5 4t-11.5 1q-32 0 -55 -23t-23 -55h-76q0 63 45.5 107.5t108.5 44.5q19 0 38.5 -7t31 -14.5t34.5 -23.5q6 -4 17.5 -12.5t15.5 -11t13 -5t20 -2.5q32 0 54.5 22.5t22.5 53.5h76q0 -63 -45 -107.5t-108 -44.5q-51 0 -101 39z" />
    <glyph glyph-name="Adieresis" unicode="&#xc4;" horiz-adv-x="763" 
d="M655 0h-137v272h-272v-272h-137v272h-68v129h68v635q0 83 6.5 125.5t23.5 77.5q34 67 98 105t144 38q147 0 223 -108q30 -43 40.5 -90t10.5 -137v-646h68v-129h-68v-272zM518 401v703q0 69 -34.5 110t-94.5 41q-64 0 -103.5 -42t-39.5 -111v-701h272zM238 1655
q28 0 47.5 -20t19.5 -48t-19.5 -48.5t-47.5 -20.5t-48 20.5t-20 48.5t20 48t48 20zM510 1655q29 0 49.5 -20t20.5 -48t-20.5 -48.5t-49.5 -20.5q-28 0 -48 20.5t-20 48.5t20 48t48 20z" />
    <glyph glyph-name="Aring" unicode="&#xc5;" horiz-adv-x="763" 
d="M655 0h-137v272h-272v-272h-137v272h-68v129h68v635q0 83 6.5 125.5t23.5 77.5q34 67 98 105t144 38q147 0 223 -108q30 -43 40.5 -90t10.5 -137v-646h68v-129h-68v-272zM518 401v703q0 69 -34.5 110t-94.5 41q-64 0 -103.5 -42t-39.5 -111v-701h272zM379 1724
q57 0 97 -40t40 -97t-40 -96t-97 -39t-96 39t-39 96t39 97t96 40zM379 1657q-28 0 -48 -21t-20 -49t20 -47.5t48 -19.5q29 0 49.5 19.5t20.5 47.5t-20.5 49t-49.5 21z" />
    <glyph glyph-name="AE" unicode="&#xc6;" horiz-adv-x="1024" 
d="M586 1296q77 86 207 86h135v-127h-144q-60 0 -94.5 -41t-34.5 -110v-703h342v-129h-342v-143h273v-129h-410v272h-272v-272h-137v272h-68v129h68v635q0 83 6.5 125.5t23.5 77.5q34 67 98 105t144 38q128 0 205 -86zM518 401v703q0 69 -34.5 110t-94.5 41
q-64 0 -103.5 -42t-39.5 -111v-701h272z" />
    <glyph glyph-name="Ccedilla" unicode="&#xc7;" horiz-adv-x="671" 
d="M631 1235q-12 -5 -41.5 -16t-52 -21t-41.5 -22q-132 -75 -210.5 -206.5t-78.5 -287.5t79 -288.5t210 -205.5q13 -5 39 -17.5t48.5 -21.5t47.5 -16v-141q-69 14 -135 43q-192 83 -309 258t-117 389q0 217 118 392.5t308 256.5q68 27 135 43v-139zM397 -233v86q10 -7 19 -7
q15 0 26 11t11 26q0 14 -11 24.5t-26 10.5v82q49 0 84 -34.5t35 -82.5q0 -49 -34.5 -84t-84.5 -35q-10 0 -19 3z" />
    <glyph glyph-name="Egrave" unicode="&#xc8;" horiz-adv-x="614" 
d="M518 0h-409v963h-68v129h68v274h409v-129h-272v-145h342v-129h-342v-834h272v-129zM98 1690h103l205 -205h-103z" />
    <glyph glyph-name="Eacute" unicode="&#xc9;" horiz-adv-x="614" 
d="M518 0h-409v963h-68v129h68v274h409v-129h-272v-145h342v-129h-342v-834h272v-129zM549 1690l-205 -205h-102l204 205h103z" />
    <glyph glyph-name="Ecircumflex" unicode="&#xca;" horiz-adv-x="614" 
d="M518 0h-409v963h-68v129h68v274h409v-129h-272v-145h342v-129h-342v-834h272v-129zM416 1493l-103 102l-102 -102h-102l204 205l205 -205h-102z" />
    <glyph glyph-name="Edieresis" unicode="&#xcb;" horiz-adv-x="614" 
d="M518 0h-409v963h-68v129h68v274h409v-129h-272v-145h342v-129h-342v-834h272v-129zM180 1655q28 0 48 -20t20 -48t-20 -48.5t-48 -20.5t-47.5 20.5t-19.5 48.5t19.5 48t47.5 20zM453 1655q29 0 49 -20t20 -48t-20 -48.5t-49 -20.5q-28 0 -48 20.5t-20 48.5t20 48t48 20z
" />
    <glyph glyph-name="Igrave" unicode="&#xcc;" horiz-adv-x="342" 
d="M240 0h-138v1366h138v-1366zM-55 1690h102l205 -205h-102z" />
    <glyph glyph-name="Iacute" unicode="&#xcd;" horiz-adv-x="342" 
d="M240 0h-138v1366h138v-1366zM395 1690l-205 -205h-102l205 205h102z" />
    <glyph glyph-name="Icircumflex" unicode="&#xce;" horiz-adv-x="342" 
d="M240 0h-138v1366h138v-1366zM272 1493l-102 102l-102 -102h-103l205 205l205 -205h-103z" />
    <glyph glyph-name="Idieresis" unicode="&#xcf;" horiz-adv-x="342" 
d="M240 0h-138v1366h138v-1366zM35 1655q28 0 47.5 -20t19.5 -48t-19.5 -48.5t-47.5 -20.5q-29 0 -49.5 20.5t-20.5 48.5t20.5 48t49.5 20zM307 1655q28 0 48 -20t20 -48t-20 -48.5t-48 -20.5t-47.5 20.5t-19.5 48.5t19.5 48t47.5 20z" />
    <glyph glyph-name="Ntilde" unicode="&#xd1;" horiz-adv-x="751" 
d="M649 0h-137v887l-272 291v-1178h-138v1366h138l272 -291v291h137v-1366zM358 1550q-1 1 -7.5 7t-9 8t-9 7t-10.5 7l-10 5t-11.5 4t-11.5 1q-32 0 -55 -23t-23 -55h-76q0 63 45.5 107.5t108.5 44.5q19 0 38.5 -7t31 -14.5t34.5 -23.5q6 -4 17.5 -12.5t15.5 -11t13 -5
t20 -2.5q32 0 55 22.5t23 53.5h75q0 -63 -45 -107.5t-108 -44.5q-51 0 -101 39z" />
    <glyph glyph-name="Ograve" unicode="&#xd2;" horiz-adv-x="1536" 
d="M768 1382q143 0 272.5 -55.5t223 -149t149 -223t55.5 -272.5q0 -142 -55.5 -271t-149 -222.5t-223 -149t-272.5 -55.5t-272.5 55.5t-223 149t-149 222.5t-55.5 271q0 143 55.5 272.5t149 223t223 149t272.5 55.5zM768 1245q-153 0 -282.5 -75.5t-205 -205t-75.5 -282.5
t75.5 -282t205 -204t282.5 -75t282.5 75t205 204t75.5 282t-75.5 282.5t-205 205t-282.5 75.5zM506 1690h102l205 -205h-102z" />
    <glyph glyph-name="Oacute" unicode="&#xd3;" horiz-adv-x="1536" 
d="M768 1382q143 0 272.5 -55.5t223 -149t149 -223t55.5 -272.5q0 -142 -55.5 -271t-149 -222.5t-223 -149t-272.5 -55.5t-272.5 55.5t-223 149t-149 222.5t-55.5 271q0 143 55.5 272.5t149 223t223 149t272.5 55.5zM768 1245q-153 0 -282.5 -75.5t-205 -205t-75.5 -282.5
t75.5 -282t205 -204t282.5 -75t282.5 75t205 204t75.5 282t-75.5 282.5t-205 205t-282.5 75.5zM1026 1690l-205 -205h-102l205 205h102z" />
    <glyph glyph-name="Ocircumflex" unicode="&#xd4;" horiz-adv-x="1536" 
d="M768 1382q143 0 272.5 -55.5t223 -149t149 -223t55.5 -272.5q0 -142 -55.5 -271t-149 -222.5t-223 -149t-272.5 -55.5t-272.5 55.5t-223 149t-149 222.5t-55.5 271q0 143 55.5 272.5t149 223t223 149t272.5 55.5zM768 1245q-153 0 -282.5 -75.5t-205 -205t-75.5 -282.5
t75.5 -282t205 -204t282.5 -75t282.5 75t205 204t75.5 282t-75.5 282.5t-205 205t-282.5 75.5zM874 1493l-102 102l-102 -102h-103l205 205l205 -205h-103z" />
    <glyph glyph-name="Otilde" unicode="&#xd5;" horiz-adv-x="1536" 
d="M768 1382q143 0 272.5 -55.5t223 -149t149 -223t55.5 -272.5q0 -142 -55.5 -271t-149 -222.5t-223 -149t-272.5 -55.5t-272.5 55.5t-223 149t-149 222.5t-55.5 271q0 143 55.5 272.5t149 223t223 149t272.5 55.5zM768 1245q-153 0 -282.5 -75.5t-205 -205t-75.5 -282.5
t75.5 -282t205 -204t282.5 -75t282.5 75t205 204t75.5 282t-75.5 282.5t-205 205t-282.5 75.5zM745 1550q-1 1 -7.5 7t-9 8t-9 7t-10.5 7l-10 5t-11.5 4t-11.5 1q-32 0 -55 -23t-23 -55h-76q0 63 45.5 107.5t108.5 44.5q19 0 38.5 -7t31 -14.5t34.5 -23.5q6 -4 17.5 -12.5
t15.5 -11t13 -5t20 -2.5q32 0 55 22.5t23 53.5h75q0 -63 -45 -107.5t-108 -44.5q-51 0 -101 39z" />
    <glyph glyph-name="Odieresis" unicode="&#xd6;" horiz-adv-x="1536" 
d="M768 1382q143 0 272.5 -55.5t223 -149t149 -223t55.5 -272.5q0 -142 -55.5 -271t-149 -222.5t-223 -149t-272.5 -55.5t-272.5 55.5t-223 149t-149 222.5t-55.5 271q0 143 55.5 272.5t149 223t223 149t272.5 55.5zM768 1245q-153 0 -282.5 -75.5t-205 -205t-75.5 -282.5
t75.5 -282t205 -204t282.5 -75t282.5 75t205 204t75.5 282t-75.5 282.5t-205 205t-282.5 75.5zM621 1655q28 0 47.5 -20t19.5 -48t-19.5 -48.5t-47.5 -20.5t-48 20.5t-20 48.5t20 48t48 20zM893 1655q29 0 49.5 -20t20.5 -48t-20.5 -48.5t-49.5 -20.5q-28 0 -48 20.5
t-20 48.5t20 48t48 20z" />
    <glyph glyph-name="multiply" unicode="&#xd7;" 
d="M1282 162l-96 -96l-416 417l-416 -417l-98 98l416 414l-416 417l96 99l418 -418l418 418l94 -99l-416 -417z" />
    <glyph glyph-name="Oslash" unicode="&#xd8;" horiz-adv-x="1536" 
d="M324 141l-144 -141l-90 90l141 141q-163 197 -163 451q0 142 55.5 272t149.5 223.5t223.5 149t271.5 55.5q257 0 453 -163l145 147l90 -92l-145 -146q159 -193 159 -446q0 -142 -55.5 -271.5t-149.5 -223.5t-224 -149.5t-273 -55.5q-252 0 -444 159zM330 330l792 792
q-155 123 -354 123q-152 0 -281.5 -75.5t-205.5 -205t-76 -282.5q0 -178 125 -352zM420 240q154 -121 348 -121q153 0 283 75.5t206 205.5t76 282q0 195 -121 348z" />
    <glyph glyph-name="Ugrave" unicode="&#xd9;" horiz-adv-x="737" 
d="M94 328v1038h137v-1090q0 -80 39 -122.5t105 -42.5q61 0 95 41.5t34 123.5v1090h137v-1049q0 -92 -10.5 -138.5t-40.5 -88.5q-74 -106 -221 -106q-81 0 -145.5 37.5t-98.5 103.5q-18 36 -24.5 78.5t-6.5 124.5zM111 1690h102l205 -205h-103z" />
    <glyph glyph-name="Uacute" unicode="&#xda;" horiz-adv-x="737" 
d="M94 328v1038h137v-1090q0 -80 39 -122.5t105 -42.5q61 0 95 41.5t34 123.5v1090h137v-1049q0 -92 -10.5 -138.5t-40.5 -88.5q-74 -106 -221 -106q-81 0 -145.5 37.5t-98.5 103.5q-18 36 -24.5 78.5t-6.5 124.5zM637 1690l-205 -205h-102l205 205h102z" />
    <glyph glyph-name="Ucircumflex" unicode="&#xdb;" horiz-adv-x="737" 
d="M94 328v1038h137v-1090q0 -80 39 -122.5t105 -42.5q61 0 95 41.5t34 123.5v1090h137v-1049q0 -92 -10.5 -138.5t-40.5 -88.5q-74 -106 -221 -106q-81 0 -145.5 37.5t-98.5 103.5q-18 36 -24.5 78.5t-6.5 124.5zM467 1493l-102 102l-103 -102h-102l205 205l204 -205h-102z
" />
    <glyph glyph-name="Udieresis" unicode="&#xdc;" horiz-adv-x="737" 
d="M94 328v1038h137v-1090q0 -80 39 -122.5t105 -42.5q61 0 95 41.5t34 123.5v1090h137v-1049q0 -92 -10.5 -138.5t-40.5 -88.5q-74 -106 -221 -106q-81 0 -145.5 37.5t-98.5 103.5q-18 36 -24.5 78.5t-6.5 124.5zM236 1655q28 0 47.5 -20t19.5 -48t-19.5 -48.5t-47.5 -20.5
t-48 20.5t-20 48.5t20 48t48 20zM508 1655q29 0 49.5 -20t20.5 -48t-20.5 -48.5t-49.5 -20.5q-28 0 -48 20.5t-20 48.5t20 48t48 20z" />
    <glyph glyph-name="germandbls" unicode="&#xdf;" horiz-adv-x="1011" 
d="M702 545q-129 108 -129 248q0 127 91 217t217 90v-137q-71 0 -120.5 -49t-49.5 -121q0 -78 77 -144q156 -125 156 -295q0 -151 -106.5 -256.5t-257.5 -105.5v137q94 0 160.5 65.5t66.5 159.5q0 102 -105 191zM197 545q-129 108 -129 248q0 127 90.5 217t216.5 90v-137
q-71 0 -120.5 -49t-49.5 -121q0 -77 78 -144q155 -124 155 -295q0 -151 -106.5 -256.5t-257.5 -105.5v137q94 0 160.5 65.5t66.5 159.5q0 103 -104 191z" />
    <glyph glyph-name="agrave" unicode="&#xe0;" horiz-adv-x="751" 
d="M649 0h-137v272h-272v-272h-138v272h-67v129h67v363q0 84 6 126t25 77q32 66 97.5 104.5t144.5 38.5q144 0 223 -109q30 -43 40.5 -90t10.5 -137v-373h68v-129h-68v-272zM512 401v430q0 69 -35.5 110.5t-95.5 41.5q-63 0 -102 -42.5t-39 -111.5v-428h272zM109 1393h102
l205 -205h-103z" />
    <glyph glyph-name="aacute" unicode="&#xe1;" horiz-adv-x="751" 
d="M649 0h-137v272h-272v-272h-138v272h-67v129h67v363q0 84 6 126t25 77q32 66 97.5 104.5t144.5 38.5q144 0 223 -109q30 -43 40.5 -90t10.5 -137v-373h68v-129h-68v-272zM512 401v430q0 69 -35.5 110.5t-95.5 41.5q-63 0 -102 -42.5t-39 -111.5v-428h272zM637 1397
l-205 -205h-102l205 205h102z" />
    <glyph glyph-name="acircumflex" unicode="&#xe2;" horiz-adv-x="751" 
d="M649 0h-137v272h-272v-272h-138v272h-67v129h67v363q0 84 6 126t25 77q32 66 97.5 104.5t144.5 38.5q144 0 223 -109q30 -43 40.5 -90t10.5 -137v-373h68v-129h-68v-272zM512 401v430q0 69 -35.5 110.5t-95.5 41.5q-63 0 -102 -42.5t-39 -111.5v-428h272zM481 1200
l-102 103l-103 -103h-102l205 205l205 -205h-103z" />
    <glyph glyph-name="atilde" unicode="&#xe3;" horiz-adv-x="751" 
d="M649 0h-137v272h-272v-272h-138v272h-67v129h67v363q0 84 6 126t25 77q32 66 97.5 104.5t144.5 38.5q144 0 223 -109q30 -43 40.5 -90t10.5 -137v-373h68v-129h-68v-272zM512 401v430q0 69 -35.5 110.5t-95.5 41.5q-63 0 -102 -42.5t-39 -111.5v-428h272zM356 1264
q-1 1 -7.5 7t-9 8t-9 7t-10.5 7l-10 5t-11.5 4t-11.5 1q-32 0 -55 -23t-23 -55h-76q0 63 45.5 107t108.5 44q19 0 38.5 -7t31 -14.5t34.5 -23.5q6 -4 17.5 -12.5t15.5 -11t13 -5t20 -2.5q32 0 55 22.5t23 53.5h75q0 -63 -45 -107t-108 -44q-51 0 -101 39z" />
    <glyph glyph-name="adieresis" unicode="&#xe4;" horiz-adv-x="751" 
d="M649 0h-137v272h-272v-272h-138v272h-67v129h67v363q0 84 6 126t25 77q32 66 97.5 104.5t144.5 38.5q144 0 223 -109q30 -43 40.5 -90t10.5 -137v-373h68v-129h-68v-272zM512 401v430q0 69 -35.5 110.5t-95.5 41.5q-63 0 -102 -42.5t-39 -111.5v-428h272zM231 1362
q28 0 48 -20t20 -48t-20 -48.5t-48 -20.5t-47.5 20.5t-19.5 48.5t19.5 48t47.5 20zM504 1362q29 0 49 -20t20 -48t-20 -48.5t-49 -20.5q-28 0 -48 20.5t-20 48.5t20 48t48 20z" />
    <glyph glyph-name="aring" unicode="&#xe5;" horiz-adv-x="751" 
d="M649 0h-137v272h-272v-272h-138v272h-67v129h67v363q0 84 6 126t25 77q32 66 97.5 104.5t144.5 38.5q144 0 223 -109q30 -43 40.5 -90t10.5 -137v-373h68v-129h-68v-272zM512 401v430q0 69 -35.5 110.5t-95.5 41.5q-63 0 -102 -42.5t-39 -111.5v-428h272zM375 1442
q57 0 97 -40t40 -97t-40 -96.5t-97 -39.5t-96 39.5t-39 96.5t39 97t96 40zM375 1374q-28 0 -48 -20.5t-20 -48.5t20 -48t48 -20q29 0 49 20t20 48t-20 48.5t-49 20.5z" />
    <glyph glyph-name="ae" unicode="&#xe6;" horiz-adv-x="1017" 
d="M580 1024q77 86 204 86h138v-127h-144q-60 0 -94.5 -41.5t-34.5 -110.5v-430h340v-129h-340v-143h273v-129h-410v272h-272v-272h-138v272h-67v129h67v363q0 84 6 126t25 77q32 66 97.5 104.5t144.5 38.5q128 0 205 -86zM512 401v430q0 69 -35.5 110.5t-95.5 41.5
q-63 0 -102 -42.5t-39 -111.5v-428h272z" />
    <glyph glyph-name="ccedilla" unicode="&#xe7;" horiz-adv-x="657" 
d="M616 -8q-113 0 -216 44t-177 118t-118 177t-44 216q0 112 44 214.5t118 176.5t177 118t216 44v-137q-173 0 -295 -122t-122 -294q0 -173 122 -295.5t295 -122.5v-137zM375 -260v88q9 -6 20 -6q14 0 24.5 10t10.5 25t-10.5 24.5t-24.5 9.5v82q48 0 82.5 -33.5t34.5 -82.5
t-34.5 -83t-82.5 -34h-20z" />
    <glyph glyph-name="egrave" unicode="&#xe8;" horiz-adv-x="608" 
d="M512 0h-410v272h-67v129h67v691h410v-129h-272v-562h340v-129h-340v-143h272v-129zM31 1397h102l205 -205h-102z" />
    <glyph glyph-name="eacute" unicode="&#xe9;" horiz-adv-x="608" 
d="M512 0h-410v272h-67v129h67v691h410v-129h-272v-562h340v-129h-340v-143h272v-129zM545 1397l-205 -205h-102l204 205h103z" />
    <glyph glyph-name="ecircumflex" unicode="&#xea;" horiz-adv-x="608" 
d="M512 0h-410v272h-67v129h67v691h410v-129h-272v-562h340v-129h-340v-143h272v-129zM412 1196l-103 102l-102 -102h-103l205 205l205 -205h-102z" />
    <glyph glyph-name="edieresis" unicode="&#xeb;" horiz-adv-x="608" 
d="M512 0h-410v272h-67v129h67v691h410v-129h-272v-562h340v-129h-340v-143h272v-129zM170 1362q28 0 48 -20t20 -48t-20 -48.5t-48 -20.5t-48 20.5t-20 48.5t20 48t48 20zM442 1362q29 0 49.5 -20t20.5 -48t-20.5 -48.5t-49.5 -20.5q-28 0 -47.5 20.5t-19.5 48.5t19.5 48
t47.5 20z" />
    <glyph glyph-name="igrave" unicode="&#xec;" horiz-adv-x="327" 
d="M231 0h-137v1092h137v-1092zM-61 1393h102l205 -205h-103z" />
    <glyph glyph-name="iacute" unicode="&#xed;" horiz-adv-x="327" 
d="M233 0h-137v1092h137v-1092zM389 1397l-205 -205h-102l205 205h102z" />
    <glyph glyph-name="icircumflex" unicode="&#xee;" horiz-adv-x="327" 
d="M231 0h-137v1092h137v-1092zM266 1198l-102 102l-103 -102h-102l205 205l205 -205h-103z" />
    <glyph glyph-name="idieresis" unicode="&#xef;" horiz-adv-x="327" 
d="M231 0h-137v1092h137v-1092zM27 1360q29 0 48 -20t19 -48t-19 -48.5t-48 -20.5q-28 0 -48 20.5t-20 48.5t20 48t48 20zM301 1360q28 0 48 -20t20 -48t-20 -48.5t-48 -20.5q-29 0 -49.5 20.5t-20.5 48.5t20.5 48t49.5 20z" />
    <glyph glyph-name="ntilde" unicode="&#xf1;" horiz-adv-x="737" 
d="M641 0h-137v614l-271 291v-905h-137v1092h137l271 -289v289h137v-1092zM352 1260q-1 1 -6 5.5t-6.5 6t-6.5 5.5t-7.5 5.5t-7.5 5t-8.5 4.5t-8 3t-9 2.5t-9.5 0.5q-32 0 -55 -22.5t-23 -54.5h-76q0 63 45.5 107t108.5 44q19 0 38.5 -7t31 -14.5t34.5 -23.5
q6 -4 17.5 -12.5t15.5 -11t13 -5t20 -2.5q32 0 54.5 22.5t22.5 53.5h76q0 -63 -45 -107t-108 -44q-51 0 -101 39z" />
    <glyph glyph-name="ograve" unicode="&#xf2;" horiz-adv-x="1249" 
d="M625 1110q153 0 282.5 -75.5t205 -205t75.5 -282.5t-75.5 -282.5t-205 -205t-282.5 -75.5t-283 75.5t-205.5 205t-75.5 282.5t75.5 282.5t205.5 205t283 75.5zM625 973q-177 0 -301.5 -124.5t-124.5 -301.5t124.5 -301.5t301.5 -124.5t301.5 124.5t124.5 301.5
t-124.5 301.5t-301.5 124.5zM365 1393h102l205 -205h-103z" />
    <glyph glyph-name="oacute" unicode="&#xf3;" horiz-adv-x="1249" 
d="M625 1110q153 0 282.5 -75.5t205 -205t75.5 -282.5t-75.5 -282.5t-205 -205t-282.5 -75.5t-283 75.5t-205.5 205t-75.5 282.5t75.5 282.5t205.5 205t283 75.5zM625 973q-177 0 -301.5 -124.5t-124.5 -301.5t124.5 -301.5t301.5 -124.5t301.5 124.5t124.5 301.5
t-124.5 301.5t-301.5 124.5zM889 1393l-205 -205h-102l204 205h103z" />
    <glyph glyph-name="ocircumflex" unicode="&#xf4;" horiz-adv-x="1249" 
d="M625 1110q153 0 282.5 -75.5t205 -205t75.5 -282.5t-75.5 -282.5t-205 -205t-282.5 -75.5t-283 75.5t-205.5 205t-75.5 282.5t75.5 282.5t205.5 205t283 75.5zM625 973q-177 0 -301.5 -124.5t-124.5 -301.5t124.5 -301.5t301.5 -124.5t301.5 124.5t124.5 301.5
t-124.5 301.5t-301.5 124.5zM729 1200l-102 103l-103 -103h-102l205 205l204 -205h-102z" />
    <glyph glyph-name="otilde" unicode="&#xf5;" horiz-adv-x="1249" 
d="M625 1110q153 0 282.5 -75.5t205 -205t75.5 -282.5t-75.5 -282.5t-205 -205t-282.5 -75.5t-283 75.5t-205.5 205t-75.5 282.5t75.5 282.5t205.5 205t283 75.5zM625 973q-177 0 -301.5 -124.5t-124.5 -301.5t124.5 -301.5t301.5 -124.5t301.5 124.5t124.5 301.5
t-124.5 301.5t-301.5 124.5zM606 1253q-1 1 -7.5 7t-9 8t-9 7t-10.5 7l-10 5t-11.5 4t-11.5 1q-32 0 -55 -23t-23 -55h-76q0 63 45.5 107.5t108.5 44.5q19 0 38.5 -7t31 -14.5t34.5 -23.5q6 -4 17.5 -12.5t15.5 -11t13 -5t20 -2.5q32 0 54.5 22.5t22.5 53.5h76
q0 -63 -45 -107.5t-108 -44.5q-51 0 -101 39z" />
    <glyph glyph-name="odieresis" unicode="&#xf6;" horiz-adv-x="1249" 
d="M625 1110q153 0 282.5 -75.5t205 -205t75.5 -282.5t-75.5 -282.5t-205 -205t-282.5 -75.5t-283 75.5t-205.5 205t-75.5 282.5t75.5 282.5t205.5 205t283 75.5zM625 973q-177 0 -301.5 -124.5t-124.5 -301.5t124.5 -301.5t301.5 -124.5t301.5 124.5t124.5 301.5
t-124.5 301.5t-301.5 124.5zM481 1362q28 0 48 -20t20 -48t-20 -48.5t-48 -20.5t-47.5 20.5t-19.5 48.5t19.5 48t47.5 20zM754 1362q29 0 49 -20t20 -48t-20 -48.5t-49 -20.5q-28 0 -48 20.5t-20 48.5t20 48t48 20z" />
    <glyph glyph-name="divide" unicode="&#xf7;" 
d="M870 987q0 -45 -30 -74.5t-72 -29.5q-43 0 -73.5 30.5t-30.5 73.5t30 74t74 31q45 0 73.5 -30t28.5 -75zM1303 535h-1070v137h1070v-137zM870 219q0 -45 -30 -74.5t-72 -29.5q-43 0 -73.5 30.5t-30.5 73.5t30 74t74 31q45 0 73.5 -30t28.5 -75z" />
    <glyph glyph-name="oslash" unicode="&#xf8;" horiz-adv-x="1249" 
d="M1057 907q131 -153 131 -360q0 -153 -75.5 -282.5t-205 -205t-282.5 -75.5q-176 0 -322 100l-78 -84l-96 96l72 78q-140 160 -140 373q0 153 75.5 282.5t205.5 205t283 75.5q177 0 331 -109l82 91l99 -99zM963 805l-568 -619q103 -65 230 -65q177 0 301.5 124.5
t124.5 301.5q0 143 -88 258zM862 901q-109 72 -237 72q-177 0 -301.5 -124.5t-124.5 -301.5q0 -155 96 -271z" />
    <glyph glyph-name="ugrave" unicode="&#xf9;" horiz-adv-x="722" 
d="M88 328v764h137v-828q3 -69 41.5 -111t102.5 -42q59 0 92.5 40.5t36.5 110.5v830h137v-775q0 -90 -10.5 -137t-40.5 -90q-74 -106 -224 -106q-79 0 -143 37.5t-98 103.5q-18 36 -24.5 78.5t-6.5 124.5zM100 1393h103l205 -205h-103z" />
    <glyph glyph-name="uacute" unicode="&#xfa;" horiz-adv-x="722" 
d="M88 328v764h137v-828q3 -69 41.5 -111t102.5 -42q59 0 92.5 40.5t36.5 110.5v830h137v-775q0 -90 -10.5 -137t-40.5 -90q-74 -106 -224 -106q-79 0 -143 37.5t-98 103.5q-18 36 -24.5 78.5t-6.5 124.5zM618 1397l-204 -205h-103l205 205h102z" />
    <glyph glyph-name="ucircumflex" unicode="&#xfb;" horiz-adv-x="722" 
d="M88 328v764h137v-828q3 -69 41.5 -111t102.5 -42q59 0 92.5 40.5t36.5 110.5v830h137v-775q0 -90 -10.5 -137t-40.5 -90q-74 -106 -224 -106q-79 0 -143 37.5t-98 103.5q-18 36 -24.5 78.5t-6.5 124.5zM457 1200l-103 103l-102 -103h-102l204 205l205 -205h-102z" />
    <glyph glyph-name="udieresis" unicode="&#xfc;" horiz-adv-x="722" 
d="M88 328v764h137v-828q3 -69 41.5 -111t102.5 -42q59 0 92.5 40.5t36.5 110.5v830h137v-775q0 -90 -10.5 -137t-40.5 -90q-74 -106 -224 -106q-79 0 -143 37.5t-98 103.5q-18 36 -24.5 78.5t-6.5 124.5zM229 1362q28 0 48 -20t20 -48t-20 -48.5t-48 -20.5t-47.5 20.5
t-19.5 48.5t19.5 48t47.5 20zM502 1362q29 0 49 -20t20 -48t-20 -48.5t-49 -20.5q-28 0 -48 20.5t-20 48.5t20 48t48 20z" />
    <glyph glyph-name="ydieresis" unicode="&#xff;" horiz-adv-x="659" 
d="M397 0h-137v641l-246 451h154l164 -312l164 312h149l-248 -451v-641zM190 1362q28 0 48 -20t20 -48t-20 -48.5t-48 -20.5t-47.5 20.5t-19.5 48.5t19.5 48t47.5 20zM463 1362q29 0 49 -20t20 -48t-20 -48.5t-49 -20.5q-28 0 -48 20.5t-20 48.5t20 48t48 20z" />
    <glyph glyph-name="dotlessi" unicode="&#x131;" horiz-adv-x="327" 
d="M231 0h-137v1092h137v-1092z" />
    <glyph glyph-name="OE" unicode="&#x152;" horiz-adv-x="1824" 
d="M1319 270q-85 -131 -228 -209.5t-321 -78.5q-143 0 -272.5 55.5t-224 149t-150 223t-55.5 272.5q0 142 55.5 272t149.5 223.5t223.5 149t271.5 55.5q177 0 321 -78t230 -210v272h412v-129h-275v-145h342v-129h-342v-836h275v-127h-412v270zM1333 682q0 153 -75.5 282.5
t-205.5 205t-284 75.5q-152 0 -281.5 -75.5t-205.5 -205t-76 -282.5t76 -282.5t206 -205t283 -75.5t282.5 76t205 205.5t75.5 281.5z" />
    <glyph glyph-name="oe" unicode="&#x153;" horiz-adv-x="1544" 
d="M1038 911v181h410v-127h-272v-564h340v-129h-340v-143h272v-129h-410v186q-61 -90 -170 -146t-243 -56q-153 0 -283 75.5t-205.5 205t-75.5 282.5t75.5 282.5t205.5 205t283 75.5q129 0 236.5 -55t176.5 -144zM625 973q-177 0 -301.5 -124.5t-124.5 -301.5t124.5 -302.5
t301.5 -125.5q120 0 219.5 60.5t154 158.5t54.5 209q0 100 -40.5 183.5t-104 135t-137.5 79.5t-146 28z" />
    <glyph glyph-name="Ydieresis" unicode="&#x178;" horiz-adv-x="659" 
d="M397 0h-137v922l-246 444h154l162 -307l162 307h153l-248 -444v-922zM186 1655q28 0 48 -20t20 -48t-20 -48.5t-48 -20.5t-47.5 20.5t-19.5 48.5t19.5 48t47.5 20zM459 1655q29 0 49 -20t20 -48t-20 -48.5t-49 -20.5q-28 0 -48 20.5t-20 48.5t20 48t48 20z" />
    <glyph glyph-name="florin" unicode="&#x192;" horiz-adv-x="870" 
d="M381 51q-41 -221 -211 -221q-85 0 -145 59.5t-60 145.5h137q0 -29 20 -48.5t48 -19.5t47 18.5t27 67.5l127 705h-135l22 129h135l62 340q41 223 211 223q85 0 144.5 -60t59.5 -145h-137q0 29 -19.5 48.5t-47.5 19.5q-60 0 -72 -82l-62 -344h136l-23 -129h-135z" />
    <glyph glyph-name="circumflex" unicode="&#x2c6;" horiz-adv-x="681" 
d="M444 1493l-102 102l-102 -102h-103l205 205l205 -205h-103z" />
    <glyph glyph-name="breve" unicode="&#x2d8;" horiz-adv-x="307" 
d="M154 631q35 0 59.5 -24.5t24.5 -59.5t-24.5 -60.5t-59.5 -25.5t-60.5 25.5t-25.5 60.5t25.5 59.5t60.5 24.5z" />
    <glyph glyph-name="ring" unicode="&#x2da;" horiz-adv-x="546" 
d="M272 1724q57 0 97.5 -40t40.5 -97t-40.5 -96t-97.5 -39t-96 39t-39 96t39 97t96 40zM272 1657q-27 0 -47 -21t-20 -49t19.5 -47.5t47.5 -19.5q29 0 49.5 19.5t20.5 47.5t-20.5 49t-49.5 21z" />
    <glyph glyph-name="tilde" unicode="&#x2dc;" horiz-adv-x="747" 
d="M358 1550q-1 1 -7.5 7t-9 8t-9 7t-10.5 7l-10 5t-11.5 4t-11.5 1q-32 0 -55 -23t-23 -55h-76q0 63 45.5 107.5t108.5 44.5q19 0 38.5 -7t31 -14.5t34.5 -23.5q6 -4 17.5 -12.5t15.5 -11t13 -5t20 -2.5q32 0 55 22.5t23 53.5h75q0 -63 -45 -107.5t-108 -44.5
q-51 0 -101 39z" />
    <glyph glyph-name="uni03A9" unicode="&#x3a9;" horiz-adv-x="1501" 
d="M1393 0h-475v117q47 39 85 75t86.5 99t81 128.5t55.5 158.5t23 194q0 161 -55 287t-169.5 202t-272.5 76q-226 0 -368 -158t-142 -407q0 -99 22 -190t54.5 -156.5t80.5 -128t88.5 -101.5t90.5 -79v-117h-478v117h332q-46 35 -87.5 75t-88.5 103t-80.5 132t-55.5 163.5
t-22 197.5q0 191 82.5 343.5t232.5 239.5t339 87q301 0 471 -183.5t170 -481.5q0 -117 -30 -225t-80.5 -192t-106.5 -147.5t-119 -111.5h336v-117z" />
    <glyph glyph-name="pi" unicode="&#x3c0;" horiz-adv-x="1413" 
d="M1266 113l28 -101q-50 -26 -129 -26q-121 0 -180 72t-59 192v663h-437v-643q0 -151 -28 -270h-142q33 112 33 274v639q-50 -2 -114.5 -15.5t-106.5 -31.5q-22 49 -41 101q47 23 125.5 40t167.5 17h909v-111h-229v-651q0 -166 135 -166q34 0 68 17z" />
    <glyph glyph-name="endash" unicode="&#x2013;" horiz-adv-x="714" 
d="M647 481h-579v129h579v-129z" />
    <glyph glyph-name="emdash" unicode="&#x2014;" horiz-adv-x="2185" 
d="M68 481v129h2048v-129h-2048z" />
    <glyph glyph-name="quoteleft" unicode="&#x2018;" horiz-adv-x="307" 
d="M164 1382v-122q32 0 54 -22.5t22 -53.5q0 -32 -22 -55t-54 -23q-38 0 -62 28t-24 74q3 94 86 174z" />
    <glyph glyph-name="quoteright" unicode="&#x2019;" horiz-adv-x="307" 
d="M143 1106v123q-32 0 -53.5 22.5t-21.5 55.5q0 31 21.5 53t53.5 22q38 0 62 -28t24 -74q-3 -94 -86 -174z" />
    <glyph glyph-name="quotedblleft" unicode="&#x201c;" horiz-adv-x="514" 
d="M164 1382v-122q32 0 54 -22.5t22 -53.5q0 -32 -22 -55t-54 -23q-38 0 -62 28t-24 74q3 94 86 174zM371 1382v-122q32 0 53.5 -22.5t21.5 -53.5q0 -33 -21.5 -55.5t-53.5 -22.5q-38 0 -61.5 28.5t-22.5 73.5q0 93 84 174z" />
    <glyph glyph-name="quotedblright" unicode="&#x201d;" horiz-adv-x="514" 
d="M350 1106v123q-31 0 -53.5 23t-22.5 55q0 31 22.5 53t53.5 22q39 0 63 -28.5t23 -73.5q-3 -97 -86 -174zM143 1106v123q-32 0 -53.5 22.5t-21.5 55.5q0 31 21.5 53t53.5 22q38 0 62 -28t24 -74q-3 -94 -86 -174z" />
    <glyph glyph-name="quotedblbase" unicode="&#x201e;" horiz-adv-x="514" 
d="M350 -123v123q-31 0 -53.5 23t-22.5 55q0 31 22.5 53.5t53.5 22.5q39 0 63 -29t23 -74q-3 -97 -86 -174zM143 -123v123q-32 0 -53.5 22.5t-21.5 55.5q0 31 21.5 53.5t53.5 22.5q38 0 62 -28.5t24 -74.5q-3 -94 -86 -174z" />
    <glyph glyph-name="bullet" unicode="&#x2022;" horiz-adv-x="458" 
d="M229 844q66 0 113 -47.5t47 -114.5q0 -66 -47 -113t-113 -47q-67 0 -114 47t-47 113q0 68 47 115t114 47z" />
    <glyph glyph-name="ellipsis" unicode="&#x2026;" horiz-adv-x="2048" 
d="M1706 154q35 0 59.5 -25.5t24.5 -60.5t-24.5 -59.5t-59.5 -24.5t-60.5 24.5t-25.5 59.5t25.5 60.5t60.5 25.5zM1022 154q35 0 60.5 -25.5t25.5 -60.5t-25.5 -59.5t-60.5 -24.5t-59.5 24.5t-24.5 59.5t24.5 60.5t59.5 25.5zM344 154q35 0 59.5 -25.5t24.5 -60.5
t-24.5 -59.5t-59.5 -24.5t-60.5 24.5t-25.5 59.5t25.5 60.5t60.5 25.5z" />
    <glyph glyph-name="perthousand" unicode="&#x2030;" horiz-adv-x="1075" 
d="M129 0h-78l488 1366h75zM221 1374q71 0 121.5 -51t50.5 -121t-50.5 -120t-121.5 -50t-120.5 50t-49.5 120q0 71 50 121.5t120 50.5zM221 1307q-41 0 -71.5 -31t-30.5 -74q0 -41 30.5 -71.5t71.5 -30.5q43 0 74 30.5t31 71.5q0 43 -31 74t-74 31zM444 334q70 0 120 -50.5
t50 -121.5q0 -70 -50 -120t-120 -50t-120 50t-50 120q0 71 50 121.5t120 50.5zM444 266q-43 0 -72.5 -30.5t-29.5 -73.5q0 -42 30 -72.5t72 -30.5q41 0 72 31t31 72q0 42 -30.5 73t-72.5 31zM854 334q70 0 120 -50.5t50 -121.5q0 -70 -50 -120t-120 -50t-120 50t-50 120
q0 71 50 121.5t120 50.5zM854 266q-43 0 -72.5 -30.5t-29.5 -73.5q0 -42 30 -72.5t72 -30.5q41 0 71.5 31t30.5 72q0 43 -30.5 73.5t-71.5 30.5z" />
    <glyph glyph-name="guilsinglleft" unicode="&#x2039;" horiz-adv-x="350" 
d="M162 272l-119 275l119 272h129l-121 -272l121 -275h-129z" />
    <glyph glyph-name="guilsinglright" unicode="&#x203a;" horiz-adv-x="350" 
d="M188 272h-129l119 275l-119 272h129l119 -272z" />
    <glyph glyph-name="fraction" unicode="&#x2044;" horiz-adv-x="290" 
d="M-59 0h-78l487 1366h76z" />
    <glyph glyph-name="Euro" unicode="&#x20ac;" horiz-adv-x="804" 
d="M600 541h-270q39 -152 148 -265.5t259 -154.5v-137q-205 42 -355.5 197t-193.5 360h-120v108h106v33q0 55 4 84h-110v108h133q52 188 194 325.5t342 182.5v-137q-134 -42 -239.5 -139.5t-153.5 -231.5h256v-108h-283q-6 -40 -6 -84v-33h289v-108z" />
    <glyph glyph-name="litre" unicode="&#x2113;" horiz-adv-x="1044" 
d="M858 115q-137 -142 -276 -142q-105 0 -168 66q-72 75 -72 235v246q-43 -47 -129 -137q-3 3 -27 30t-36 42q106 118 192 209v479q0 169 64 258.5t178 89.5q52 0 91.5 -20.5t61 -53.5t31.5 -67.5t10 -69.5q0 -136 -60 -264.5t-173 -274.5q-12 -16 -39.5 -49.5t-32.5 -40.5
v-381q0 -96 36 -142t99 -46q91 0 193 111q9 -13 28.5 -38.5t28.5 -39.5zM668 1264q0 51 -20.5 84.5t-59.5 33.5q-57 0 -86 -56.5t-29 -182.5v-338q40 51 49 65q146 221 146 394z" />
    <glyph glyph-name="Omega" unicode="&#x2126;" horiz-adv-x="1501" 
d="M1393 0h-475v117q47 39 85 75t86.5 99t81 128.5t55.5 158.5t23 194q0 161 -55 287t-169.5 202t-272.5 76q-226 0 -368 -158t-142 -407q0 -99 22 -190t54.5 -156.5t80.5 -128t88.5 -101.5t90.5 -79v-117h-478v117h332q-46 35 -87.5 75t-88.5 103t-80.5 132t-55.5 163.5
t-22 197.5q0 191 82.5 343.5t232.5 239.5t339 87q301 0 471 -183.5t170 -481.5q0 -117 -30 -225t-80.5 -192t-106.5 -147.5t-119 -111.5h336v-117z" />
    <glyph glyph-name="estimated" unicode="&#x212e;" horiz-adv-x="1380" 
d="M1300 621h-956v-428q143 -140 340 -140q158 0 267 73t192 210q15 -8 40.5 -23.5t35.5 -21.5q-50 -76 -100 -130.5t-114.5 -98t-144 -65.5t-176.5 -22q-180 0 -319 88t-212 234t-73 324q0 180 72 326t212 233.5t324 87.5q139 0 254.5 -51t192 -139t119.5 -205.5t46 -251.5
zM1028 698v351q-67 66 -156.5 103.5t-185.5 37.5q-206 0 -342 -139v-353h684z" />
    <glyph glyph-name="partialdiff" unicode="&#x2202;" horiz-adv-x="1226" 
d="M1112 995q0 -196 -51 -393q-25 -94 -61.5 -180.5t-89.5 -168.5t-116 -142.5t-145 -97t-172 -36.5q-163 0 -264.5 107t-101.5 281q0 147 49 273t129 208.5t179 129t200 46.5q109 0 186 -47t109 -115h4q10 72 10 146q0 179 -79.5 274.5t-225.5 95.5q-111 0 -207 -57
q-18 43 -39 100q44 27 116.5 47.5t147.5 20.5q193 0 307.5 -128t114.5 -364zM946 719q-25 85 -93 139.5t-175 54.5q-112 0 -210 -71.5t-158 -199.5t-60 -280q0 -123 63.5 -197.5t167.5 -74.5q158 0 282.5 171t182.5 458z" />
    <glyph glyph-name="Delta" unicode="&#x2206;" horiz-adv-x="1304" 
d="M1257 0h-1194v72q159 421 519 1362h161q440 -1165 514 -1362v-72zM1094 119q-157 417 -400 1061q-12 38 -32 114h-7q-21 -81 -32 -112q-67 -177 -200.5 -531.5t-199.5 -531.5h871z" />
    <glyph glyph-name="product" unicode="&#x220f;" horiz-adv-x="1531" 
d="M1346 -471h-140v1784h-880v-1784h-138v1905h1158v-1905z" />
    <glyph glyph-name="summation" unicode="&#x2211;" horiz-adv-x="1341" 
d="M1274 -471h-1231v61q514 635 727 899q-306 395 -676 871v74h1127v-117h-936q262 -334 641 -825q-113 -141 -341 -422.5t-341 -423.5h1030v-117z" />
    <glyph glyph-name="minus" unicode="&#x2212;" 
d="M1303 535h-1067v137h1067v-137z" />
    <glyph glyph-name="uni2215" unicode="&#x2215;" horiz-adv-x="290" 
d="M-59 0h-78l487 1366h76z" />
    <glyph glyph-name="uni2219" unicode="&#x2219;" horiz-adv-x="307" 
d="M154 770q35 0 60.5 -25.5t25.5 -60.5t-25.5 -59.5t-60.5 -24.5t-59.5 24.5t-24.5 59.5t24.5 60.5t59.5 25.5z" />
    <glyph glyph-name="radical" unicode="&#x221a;" horiz-adv-x="1114" 
d="M1112 1493q-71 -253 -214 -759t-214 -759h-111q-30 68 -307 715q-6 -4 -49 -28.5t-65 -38.5q-24 41 -48 84q152 90 226 135q43 -98 142.5 -330t154.5 -356q71 251 200 713.5t174 623.5h111z" />
    <glyph glyph-name="infinity" unicode="&#x221e;" horiz-adv-x="1673" 
d="M1563 602q0 -142 -91.5 -240t-244.5 -98q-122 0 -222.5 66.5t-168.5 173.5h-5q-73 -109 -173 -174.5t-212 -65.5q-155 0 -248.5 93t-93.5 237q0 148 92 243t244 95q231 0 391 -240h5q30 44 66 83t84 76t108.5 59t124.5 22q152 0 248 -90.5t96 -239.5zM1440 600
q0 98 -55 160.5t-166 62.5q-180 0 -328 -225q65 -108 150.5 -167.5t175.5 -59.5q111 0 167 65.5t56 163.5zM776 598q-62 104 -150 165.5t-177 61.5q-109 0 -165.5 -65.5t-56.5 -165.5q0 -98 63 -160.5t159 -62.5q94 0 178 62.5t149 164.5z" />
    <glyph glyph-name="integral" unicode="&#x222b;" horiz-adv-x="1038" 
d="M866 1399q-40 20 -100 20q-91 0 -136.5 -55t-45.5 -158v-1341q0 -159 -83.5 -245.5t-226.5 -86.5q-84 0 -143 23q6 22 17.5 62.5t13.5 45.5q45 -18 102 -18q180 0 180 213v1343q0 155 82.5 243.5t229.5 88.5q38 0 79.5 -9t61.5 -20q-4 -12 -14.5 -48.5t-16.5 -57.5z" />
    <glyph glyph-name="approxequal" unicode="&#x2248;" 
d="M1343 866q-70 -87 -148.5 -135.5t-188.5 -48.5q-116 0 -254 74q-128 75 -224 75q-126 0 -235 -147l-98 100q76 91 148.5 138t180.5 47q133 0 258 -72q137 -78 226 -78q124 0 239 148zM1343 420q-70 -87 -148.5 -135.5t-188.5 -48.5q-121 0 -254 75q-129 76 -224 76
q-127 0 -235 -149l-98 102q36 43 65.5 71.5t70 57t88.5 42t105 13.5q131 0 258 -73q137 -78 226 -78q125 0 239 147z" />
    <glyph glyph-name="notequal" unicode="&#x2260;" 
d="M1303 311h-627l-152 -288h-151l153 288h-290v138h368l168 311h-536v137h614l158 297h149l-160 -297h306v-137h-383l-166 -311h549v-138z" />
    <glyph glyph-name="lessequal" unicode="&#x2264;" 
d="M1303 0h-1067v137h1067v-137zM1303 272l-1067 437v94l1067 434v-150l-828 -329v-4l828 -334v-148z" />
    <glyph glyph-name="greaterequal" unicode="&#x2265;" 
d="M1303 0h-1067v137h1067v-137zM1303 707l-1067 -435v150l827 328v6l-827 331v150l1067 -436v-94z" />
    <glyph glyph-name="lozenge" unicode="&#x25ca;" horiz-adv-x="1198" 
d="M1075 717q-75 -120 -223 -358.5t-223 -358.5h-76q-325 526 -444 715q181 289 444 719h76q75 -120 223 -358.5t223 -358.5zM948 717q-174 277 -356 573q-182 -296 -356 -573q349 -565 354 -574q128 202 358 574z" />
    <glyph glyph-name="I.alt" unicode="&#xe000;" horiz-adv-x="491" 
d="M313 0h-137v887h137v-887zM246 1382q85 0 145 -59.5t60 -144.5t-60 -145t-145 -60t-145 60t-60 145t60 144.5t145 59.5zM246 1255q-32 0 -54 -22.5t-22 -54.5t22 -55t54 -23t55 23t23 55t-23 54.5t-55 22.5z" />
    <glyph glyph-name="O.alt" unicode="&#xe001;" horiz-adv-x="1232" 
d="M479 129h410l-137 -129h-410zM616 1382q112 0 215 -44t177.5 -118t118.5 -177t44 -216q0 -112 -44 -215t-118.5 -177.5t-177.5 -118.5t-215 -44q-113 0 -216 44t-177 118.5t-118 177.5t-44 215q0 113 44 216t118 177t177 118t216 44zM616 1245q-173 0 -295 -122.5
t-122 -295.5t122 -295t295 -122t295.5 122t122.5 295t-122.5 295.5t-295.5 122.5z" />
    <glyph glyph-name="Oacute.alt" unicode="&#xe002;" horiz-adv-x="1232" 
d="M479 129h410l-137 -129h-410zM616 1382q112 0 215 -44t177.5 -118t118.5 -177t44 -216q0 -112 -44 -215t-118.5 -177.5t-177.5 -118.5t-215 -44q-113 0 -216 44t-177 118.5t-118 177.5t-44 215q0 113 44 216t118 177t177 118t216 44zM616 1245q-173 0 -295 -122.5
t-122 -295.5t122 -295t295 -122t295.5 122t122.5 295t-122.5 295.5t-295.5 122.5zM801 1690l-205 -205h-102l204 205h103z" />
    <glyph glyph-name="Ograve.alt" unicode="&#xe003;" horiz-adv-x="1232" 
d="M479 129h410l-137 -129h-410zM616 1382q112 0 215 -44t177.5 -118t118.5 -177t44 -216q0 -112 -44 -215t-118.5 -177.5t-177.5 -118.5t-215 -44q-113 0 -216 44t-177 118.5t-118 177.5t-44 215q0 113 44 216t118 177t177 118t216 44zM616 1245q-173 0 -295 -122.5
t-122 -295.5t122 -295t295 -122t295.5 122t122.5 295t-122.5 295.5t-295.5 122.5zM444 1690h103l205 -205h-103z" />
    <glyph glyph-name="Ocircumflex.alt" unicode="&#xe004;" horiz-adv-x="1232" 
d="M479 129h410l-137 -129h-410zM616 1382q112 0 215 -44t177.5 -118t118.5 -177t44 -216q0 -112 -44 -215t-118.5 -177.5t-177.5 -118.5t-215 -44q-113 0 -216 44t-177 118.5t-118 177.5t-44 215q0 113 44 216t118 177t177 118t216 44zM616 1245q-173 0 -295 -122.5
t-122 -295.5t122 -295t295 -122t295.5 122t122.5 295t-122.5 295.5t-295.5 122.5zM711 1493l-103 102l-102 -102h-103l205 205l205 -205h-102z" />
    <glyph glyph-name="Odieresis.alt" unicode="&#xe005;" horiz-adv-x="1232" 
d="M479 129h410l-137 -129h-410zM616 1382q112 0 215 -44t177.5 -118t118.5 -177t44 -216q0 -112 -44 -215t-118.5 -177.5t-177.5 -118.5t-215 -44q-113 0 -216 44t-177 118.5t-118 177.5t-44 215q0 113 44 216t118 177t177 118t216 44zM616 1245q-173 0 -295 -122.5
t-122 -295.5t122 -295t295 -122t295.5 122t122.5 295t-122.5 295.5t-295.5 122.5zM477 1655q28 0 48 -20t20 -48t-20 -48.5t-48 -20.5t-47.5 20.5t-19.5 48.5t19.5 48t47.5 20zM750 1655q29 0 49 -20t20 -48t-20 -48.5t-49 -20.5q-28 0 -48 20.5t-20 48.5t20 48t48 20z" />
    <glyph glyph-name="Otilde.alt" unicode="&#xe006;" horiz-adv-x="1232" 
d="M479 129h410l-137 -129h-410zM616 1382q112 0 215 -44t177.5 -118t118.5 -177t44 -216q0 -112 -44 -215t-118.5 -177.5t-177.5 -118.5t-215 -44q-113 0 -216 44t-177 118.5t-118 177.5t-44 215q0 113 44 216t118 177t177 118t216 44zM616 1245q-173 0 -295 -122.5
t-122 -295.5t122 -295t295 -122t295.5 122t122.5 295t-122.5 295.5t-295.5 122.5zM602 1550q-44 39 -70 39q-32 0 -54.5 -23t-22.5 -55h-76q0 63 45 107.5t108 44.5q28 0 50 -11t55 -34q7 -5 17.5 -13t15 -10.5t13 -5t19.5 -2.5q32 0 55 22.5t23 53.5h76q0 -63 -45.5 -107.5
t-108.5 -44.5q-24 0 -44.5 7t-30 13t-25.5 19z" />
    <glyph glyph-name="Oslash.alt" unicode="&#xe007;" horiz-adv-x="1232" 
d="M616 1382q202 0 359 -131l119 119l71 -74l-118 -118q124 -153 124 -351q0 -112 -44 -215t-118.5 -177.5t-177.5 -118.5t-215 -44q-201 0 -352 125l-108 -106l-70 69l107 109q-132 155 -132 358q0 113 44 216t118 177t177 118t216 44zM616 1245q-173 0 -295 -122.5
t-122 -295.5q0 -148 90 -262l588 588q-116 92 -261 92zM1034 827q0 138 -86 252l-586 -583q109 -86 254 -86q173 0 295.5 122t122.5 295zM479 129h410l-137 -129h-410z" />
    <glyph glyph-name="R.alt" unicode="&#xe008;" horiz-adv-x="724" 
d="M324 297q-42 -20 -84 -31v-266h-138v1374q68 -3 138 -18q182 -48 299.5 -199t117.5 -346q0 -131 -57.5 -247t-159.5 -197l217 -367h-153zM240 1212v-802q126 46 203 155t77 246t-78 246.5t-202 154.5z" />
    <glyph glyph-name="S.alt" unicode="&#xe009;" horiz-adv-x="624" 
d="M565 1124v-14h-129v14q0 54 -37.5 91.5t-91.5 37.5q-55 0 -90 -35t-35 -85q0 -16 4.5 -34.5t9.5 -30t11 -23.5t6 -13l317 -608q54 -99 54 -176q0 -115 -81 -190.5t-190 -75.5q-113 0 -192.5 80t-79.5 194h137q0 -57 39 -97t96 -40t95 37t38 88q0 16 -3.5 34t-9.5 34
t-11 28.5t-10.5 23t-5.5 11.5l-304 592q-49 96 -49 166q0 107 75.5 178t178.5 71q106 0 182 -75.5t76 -182.5z" />
    <glyph glyph-name="i.alt" unicode="&#xe00a;" horiz-adv-x="491" 
d="M315 0h-137v614h137v-614zM246 1110q85 0 145 -60t60 -145q0 -86 -60 -145.5t-145 -59.5t-145 59.5t-60 145.5q0 85 60 145t145 60zM246 983q-32 0 -54 -23.5t-22 -54.5q0 -32 22 -55t54 -23t55 23t23 55q0 31 -23 54.5t-55 23.5z" />
    <glyph glyph-name="o.alt" unicode="&#xe00b;" horiz-adv-x="958" 
d="M479 1110q173 0 295.5 -123.5t122.5 -296.5q0 -172 -122.5 -295t-295.5 -123t-295.5 123t-122.5 295q0 173 122.5 296.5t295.5 123.5zM479 973q-117 0 -198.5 -83t-81.5 -200q0 -116 81.5 -198t198.5 -82t199 82t82 198q0 117 -82 200t-199 83zM342 129h410l-136 -129
h-409z" />
    <glyph glyph-name="oacute.alt" unicode="&#xe00c;" horiz-adv-x="958" 
d="M479 1110q173 0 295.5 -123.5t122.5 -296.5q0 -172 -122.5 -295t-295.5 -123t-295.5 123t-122.5 295q0 173 122.5 296.5t295.5 123.5zM479 973q-117 0 -198.5 -83t-81.5 -200q0 -116 81.5 -198t198.5 -82t199 82t82 198q0 117 -82 200t-199 83zM342 129h410l-136 -129
h-409zM684 1393l-205 -205h-102l205 205h102z" />
    <glyph glyph-name="ograve.alt" unicode="&#xe00d;" horiz-adv-x="958" 
d="M479 1110q173 0 295.5 -123.5t122.5 -296.5q0 -172 -122.5 -295t-295.5 -123t-295.5 123t-122.5 295q0 173 122.5 296.5t295.5 123.5zM479 973q-117 0 -198.5 -83t-81.5 -200q0 -116 81.5 -198t198.5 -82t199 82t82 198q0 117 -82 200t-199 83zM342 129h410l-136 -129
h-409zM303 1393h103l204 -205h-102z" />
    <glyph glyph-name="ocircumflex.alt" unicode="&#xe00e;" horiz-adv-x="958" 
d="M479 1110q173 0 295.5 -123.5t122.5 -296.5q0 -172 -122.5 -295t-295.5 -123t-295.5 123t-122.5 295q0 173 122.5 296.5t295.5 123.5zM479 973q-117 0 -198.5 -83t-81.5 -200q0 -116 81.5 -198t198.5 -82t199 82t82 198q0 117 -82 200t-199 83zM342 129h410l-136 -129
h-409zM573 1200l-102 103l-102 -103h-103l205 205l205 -205h-103z" />
    <glyph glyph-name="odieresis.alt" unicode="&#xe00f;" horiz-adv-x="958" 
d="M479 1110q173 0 295.5 -123.5t122.5 -296.5q0 -172 -122.5 -295t-295.5 -123t-295.5 123t-122.5 295q0 173 122.5 296.5t295.5 123.5zM479 973q-117 0 -198.5 -83t-81.5 -200q0 -116 81.5 -198t198.5 -82t199 82t82 198q0 117 -82 200t-199 83zM342 129h410l-136 -129
h-409zM338 1362q28 0 48 -20t20 -48t-20 -48.5t-48 -20.5t-48 20.5t-20 48.5t20 48t48 20zM610 1362q29 0 49.5 -20t20.5 -48t-20.5 -48.5t-49.5 -20.5q-28 0 -47.5 20.5t-19.5 48.5t19.5 48t47.5 20z" />
    <glyph glyph-name="otilde.alt" unicode="&#xe010;" horiz-adv-x="958" 
d="M479 1110q173 0 295.5 -123.5t122.5 -296.5q0 -172 -122.5 -295t-295.5 -123t-295.5 123t-122.5 295q0 173 122.5 296.5t295.5 123.5zM479 973q-117 0 -198.5 -83t-81.5 -200q0 -116 81.5 -198t198.5 -82t199 82t82 198q0 117 -82 200t-199 83zM342 129h410l-136 -129
h-409zM455 1253q-44 39 -70 39q-32 0 -55 -23t-23 -55h-76q0 63 45.5 107.5t108.5 44.5q19 0 38.5 -7t31 -14.5t34.5 -23.5q6 -4 17.5 -12.5t15.5 -11t13 -5t20 -2.5q32 0 55 22.5t23 53.5h76q0 -63 -45.5 -107.5t-108.5 -44.5q-24 0 -44.5 7t-30 13t-25.5 19z" />
    <glyph glyph-name="oslash.alt" unicode="&#xe011;" horiz-adv-x="958" 
d="M479 1110q132 0 246 -80l61 66l72 -72l-59 -63q98 -119 98 -271q0 -172 -122.5 -295t-295.5 -123q-131 0 -241 76l-56 -61l-71 71l53 58q-103 121 -103 274q0 173 122.5 296.5t295.5 123.5zM479 973q-117 0 -198.5 -83t-81.5 -200q0 -96 59 -174l373 412q-67 45 -152 45z
M760 690q0 94 -55 168l-373 -407q65 -41 147 -41q117 0 199 82t82 198zM342 129h410l-136 -129h-409z" />
    <glyph glyph-name="r.alt" unicode="&#xe012;" horiz-adv-x="710" 
d="M233 401q113 3 192 85t79 196t-78.5 196.5t-192.5 86.5v-564zM444 332l197 -332h-154l-170 283q-53 -17 -84 -21v-262h-137v1092h103q88 0 166.5 -26t140.5 -75.5t98.5 -129.5t36.5 -179q0 -109 -53 -201.5t-144 -148.5z" />
    <glyph glyph-name="s.alt" unicode="&#xe013;" horiz-adv-x="624" 
d="M141 659q-84 99 -84 187q0 101 68 182.5t188 81.5q106 0 181 -76t75 -182h-129q0 54 -37 91.5t-90 37.5q-60 0 -93.5 -37t-33.5 -90q0 -9 1.5 -18t5.5 -18t7.5 -17t9.5 -17t10.5 -15t11 -14t10 -11.5t9.5 -10.5t7 -8l236 -264q90 -101 90 -199q0 -50 -17 -98t-49.5 -89
t-86 -66t-118.5 -25q-113 0 -192.5 79t-79.5 193h137q0 -57 39.5 -96t95.5 -39q61 0 99.5 41t38.5 94q0 12 -2 23t-6.5 21t-8.5 17.5t-11 16.5l-10.5 13.5t-11 12.5t-8.5 9z" />
    <glyph glyph-name="zero.alt" unicode="&#xe014;" horiz-adv-x="1249" 
d="M625 1110q153 0 282.5 -75.5t205 -205t75.5 -282.5t-75.5 -282.5t-205 -205t-282.5 -75.5t-283 75.5t-205.5 205t-75.5 282.5t75.5 282.5t205.5 205t283 75.5zM625 973q-177 0 -301.5 -124.5t-124.5 -301.5t124.5 -301.5t301.5 -124.5t301.5 124.5t124.5 301.5
t-124.5 301.5t-301.5 124.5z" />
    <glyph glyph-name="one.alt" unicode="&#xe015;" horiz-adv-x="327" 
d="M231 0h-137v1092h137v-1092z" />
    <glyph glyph-name="two.alt" unicode="&#xe016;" horiz-adv-x="620" 
d="M393 748q31 61 31 88q0 57 -40 97t-97 40t-97 -40t-40 -97h-138q0 114 80.5 194t194.5 80t193 -80t79 -194q0 -53 -35 -123l-288 -584h323v-129h-547z" />
    <glyph glyph-name="three.alt" unicode="&#xe017;" horiz-adv-x="610" 
d="M55 -2v139q27 -8 68 -8q117 0 198.5 82t81.5 199q0 91 -52 163.5t-136 102.5q-31 11 -70 14l158 273h-248v129h410v-129l-119 -199q90 -57 142.5 -150.5t52.5 -203.5q0 -173 -122.5 -295.5t-295.5 -122.5q-33 0 -68 6z" />
    <glyph glyph-name="four.alt" unicode="&#xe018;" horiz-adv-x="741" 
d="M588 0h-137v272h-410v129l410 691h137v-691h84v-129h-84v-272zM451 401v453l-265 -453h265z" />
    <glyph glyph-name="five.alt" unicode="&#xe019;" horiz-adv-x="608" 
d="M55 684l68 408h342v-129h-232l-18 -146q141 -31 233.5 -144.5t92.5 -262.5q0 -173 -122.5 -295.5t-295.5 -122.5q-33 0 -68 6v139q24 -8 68 -8q117 0 198.5 82t81.5 199t-81.5 198.5t-198.5 81.5q-33 0 -68 -6z" />
    <glyph glyph-name="six.alt" unicode="&#xe01a;" horiz-adv-x="940" 
d="M698 973q-267 -21 -426 -254q105 78 224 78q110 0 200.5 -58t139.5 -150t49 -196q0 -170 -120 -289.5t-290 -119.5q-216 0 -328 153q-98 134 -85 330q14 202 138 367q148 197 394 251q51 11 104 15v-127zM475 117q114 0 193.5 79t79.5 193t-79.5 193.5t-193.5 79.5
q-113 0 -192.5 -79.5t-79.5 -193.5q0 -113 79 -192.5t193 -79.5z" />
    <glyph glyph-name="seven.alt" unicode="&#xe01b;" horiz-adv-x="546" 
d="M246 0h-137l239 963h-307v129h477z" />
    <glyph glyph-name="eight.alt" unicode="&#xe01c;" horiz-adv-x="968" 
d="M219 733q-16 41 -16 94q0 117 81.5 200t198.5 83t200 -83t83 -200q0 -48 -16 -94q72 -59 114.5 -144.5t42.5 -182.5q0 -175 -124.5 -298.5t-299.5 -123.5t-298.5 123.5t-123.5 298.5q0 97 42 182.5t116 144.5zM674 618q-83 -73 -191 -73q-109 0 -188 73q-96 -83 -96 -212
q0 -119 83 -202t201 -83q119 0 203 83.5t84 201.5q0 129 -96 212zM483 983q-63 0 -108 -46t-45 -110q0 -61 43 -107t110 -46q63 0 109.5 45t46.5 108q0 65 -45.5 110.5t-110.5 45.5z" />
    <glyph glyph-name="nine.alt" unicode="&#xe01d;" horiz-adv-x="942" 
d="M262 117q266 27 418 266q-105 -82 -223 -86q-109 -4 -201.5 51t-145.5 145.5t-57 194.5q-5 170 111.5 294t286.5 130q216 8 334 -143q102 -129 95 -325q-6 -204 -126 -374q-141 -200 -383 -263q-51 -13 -105 -19zM455 973q-114 -4 -191 -87t-74 -196q4 -114 87 -190.5
t196 -73.5q114 5 191 87t73 196q-3 113 -85.5 190t-196.5 74z" />
    <glyph glyph-name="dollar.alt" unicode="&#xe01e;" horiz-adv-x="638" 
d="M281 1106v63h81v-63q92 -15 154 -86.5t62 -167.5h-129q0 40 -24.5 73.5t-62.5 47.5v-344l140 -168q90 -111 90 -199q0 -98 -61 -180t-169 -96v-105h-81v105q-99 15 -166.5 91.5t-67.5 178.5h137q0 -45 27 -81t70 -50v373l-131 161q-87 109 -87 187q0 93 58 170t160 90z
M362 414v-289q43 13 69 50.5t26 80.5q0 12 -2 23t-6.5 21t-8.5 17.5t-11 16.5l-10.5 13.5t-11 12.5t-8.5 9zM281 975q-41 -12 -64.5 -46t-23.5 -75q2 -52 71 -129l17 -16v266z" />
    <glyph glyph-name="cent.alt" unicode="&#xe01f;" horiz-adv-x="516" 
d="M315 313v473q-63 -36 -100 -99t-37 -138t37 -138t100 -98zM451 139q-27 0 -68 6v-73h-68v92q-121 42 -197.5 147.5t-76.5 237.5t75.5 238t198.5 149v92h68v-74q40 4 68 4h24v-137h-24q-37 0 -68 -8v-528q30 -9 68 -9h24v-137h-24z" />
    <glyph glyph-name="sterling.alt" unicode="&#xe020;" horiz-adv-x="614" 
d="M518 1085v-141q-25 10 -67 10q-90 0 -147.5 -58t-57.5 -169v-326h342v-129h-342v-143h272v-129h-409v272h-68v129h68v314q0 180 97 278.5t245 98.5q27 0 67 -7z" />
    <glyph glyph-name="yen.alt" unicode="&#xe021;" horiz-adv-x="659" 
d="M397 520v-520h-137v520h-135v129h135l-246 443h154l162 -324l162 324h153l-248 -443h138v-129h-138z" />
    <glyph glyph-name="florin.alt" unicode="&#xe022;" horiz-adv-x="827" 
d="M549 954l-62 -342h138l-25 -129h-135l-84 -465q-41 -223 -211 -223q-85 0 -145 60t-60 145h137q0 -28 20 -48t48 -20t47 18.5t27 67.5l82 465h-136l25 129h135l60 336q22 117 74 172.5t139 55.5q85 0 144.5 -60t59.5 -145h-137q0 28 -19.5 47.5t-47.5 19.5q-59 0 -74 -84
z" />
    <glyph glyph-name="Euro.alt" unicode="&#xe023;" horiz-adv-x="657" 
d="M653 -8q-190 0 -337 113t-197 292h-96v109h77q-2 12 -2 41q0 26 4 76h-79v108h106q58 164 201 266.5t323 102.5v-137q-122 0 -222 -63.5t-152 -168.5h235v-108h-272q-6 -37 -6 -76q0 -29 2 -41h276v-109h-252q46 -120 152.5 -194t238.5 -74v-137z" />
    <glyph glyph-name="percent.alt" unicode="&#xe024;" horiz-adv-x="579" 
d="M51 0l410 1092h67l-409 -1092h-68zM188 1100q57 0 96.5 -39t39.5 -96t-39.5 -97.5t-96.5 -40.5t-97 40.5t-40 97.5t40 96t97 39zM188 1032q-29 0 -49 -19.5t-20 -47.5q0 -29 20 -49.5t49 -20.5q28 0 48 20.5t20 49.5q0 28 -20 47.5t-48 19.5zM393 264q57 0 96 -39.5
t39 -95.5q0 -57 -39 -97t-96 -40t-97 40t-40 97q0 56 40 95.5t97 39.5zM393 197q-29 0 -49 -20t-20 -48q0 -29 20 -49.5t49 -20.5q28 0 48 20.5t20 49.5q0 28 -20 48t-48 20z" />
    <glyph glyph-name="perthousand.alt" unicode="&#xe025;" horiz-adv-x="921" 
d="M51 0l410 1092h67l-409 -1092h-68zM188 1100q57 0 96.5 -39t39.5 -96t-39.5 -97.5t-96.5 -40.5t-97 40.5t-40 97.5t40 96t97 39zM188 1032q-29 0 -49 -19.5t-20 -47.5q0 -29 20 -49.5t49 -20.5q28 0 48 20.5t20 49.5q0 28 -20 47.5t-48 19.5zM393 264q57 0 96 -39.5
t39 -95.5q0 -57 -39 -97t-96 -40t-97 40t-40 97q0 56 40 95.5t97 39.5zM393 197q-29 0 -49 -20t-20 -48q0 -29 20 -49.5t49 -20.5q28 0 48 20.5t20 49.5q0 28 -20 48t-48 20zM733 264q57 0 97 -39.5t40 -95.5q0 -57 -40 -97t-97 -40t-96 40t-39 97q0 56 39 95.5t96 39.5z
M733 197q-28 0 -47.5 -20t-19.5 -48q0 -29 19.5 -49.5t47.5 -20.5q29 0 49.5 20.5t20.5 49.5q0 28 -20.5 48t-49.5 20z" />
    <glyph glyph-name="slash.alt" unicode="&#xe026;" horiz-adv-x="204" 
d="M-135 0l407 1092h70l-410 -1092h-67z" />
    <glyph glyph-name="quotesingle.alt" unicode="&#xe027;" horiz-adv-x="239" 
d="M205 1024q0 -16 -6 -31l-80 -260l-80 260q-4 20 -4 31q0 35 24.5 60.5t59.5 25.5t60.5 -25.5t25.5 -60.5z" />
    <glyph glyph-name="quotedbl.alt" unicode="&#xe028;" horiz-adv-x="464" 
d="M205 1024q0 -16 -6 -31l-80 -260l-80 260q-4 20 -4 31q0 35 24.5 60.5t59.5 25.5t60.5 -25.5t25.5 -60.5zM430 1024q0 -16 -6 -31l-80 -260l-80 260q-4 20 -4 31q0 35 24.5 60.5t59.5 25.5t60.5 -25.5t25.5 -60.5z" />
    <glyph glyph-name="ampersand.alt" unicode="&#xe029;" horiz-adv-x="653" 
d="M287 594q-88 -81 -88 -201q0 -114 79 -194t193 -80v274h129v-241v-150q-53 -18 -129 -18q-111 -1 -205.5 53.5t-149.5 149t-55 206.5q0 91 38.5 172t105.5 137q-25 62 -25 117q0 120 85.5 205.5t205.5 85.5q22 0 68 -8v-146q-34 17 -68 17q-63 0 -108.5 -45.5
t-45.5 -108.5q0 -67 46.5 -110t107.5 -43v-138q-102 0 -184 66z" />
    <glyph glyph-name="orn.001" unicode="&#xe02a;" horiz-adv-x="958" 
d="M479 1100q173 0 295.5 -122.5t122.5 -295.5q0 -172 -122.5 -295t-295.5 -123t-295.5 123t-122.5 295q0 173 122.5 295.5t295.5 122.5zM479 963q-117 0 -198.5 -82t-81.5 -199t81.5 -199t198.5 -82t199 82t82 199t-82 199t-199 82z" />
    <glyph glyph-name="orn.002" unicode="&#xe02b;" horiz-adv-x="958" 
d="M479 827q173 0 295.5 -122t122.5 -295t-122.5 -295.5t-295.5 -122.5t-295.5 122.5t-122.5 295.5t122.5 295t295.5 122zM479 690q-117 0 -198.5 -81.5t-81.5 -198.5t81.5 -199t198.5 -82t199 82t82 199t-82 198.5t-199 81.5z" />
    </font>
</defs>
</svg>
